<svg width="24" height="25" viewBox="0 0 24 25" fill="none" xmlns="http://www.w3.org/2000/svg">
<path d="M6.38679 2.99992C5.99627 2.6094 5.3631 2.6094 4.97258 2.99992C4.58206 3.39045 4.58206 4.02361 4.97258 4.41414L6.38679 2.99992ZM20.9726 20.4141C21.3631 20.8047 21.9963 20.8047 22.3868 20.4141C22.7773 20.0236 22.7773 19.3904 22.3868 18.9999L20.9726 20.4141ZM1.33497 14.5194L2.2022 14.0215L1.33497 14.5194ZM1.33497 12.0074L0.467735 11.5095L1.33497 12.0074ZM22.0246 12.0073L21.1573 12.5052V12.5052L22.0246 12.0073ZM21.3042 13.6701C21.1567 14.2023 21.4685 14.7533 22.0007 14.9009C22.533 15.0484 23.084 14.7366 23.2316 14.2044L21.3042 13.6701ZM15.326 4.878C14.8039 4.69795 14.2347 4.97523 14.0546 5.49734C13.8746 6.01945 14.1519 6.58867 14.674 6.76873L15.326 4.878ZM20.341 18.4079C20.7281 18.0141 20.7226 17.3809 20.3288 16.9938C19.9349 16.6066 19.3017 16.6121 18.9146 17.006L20.341 18.4079ZM8.20014 6.95094C8.71183 6.7431 8.95814 6.15981 8.7503 5.64813C8.54246 5.13644 7.95917 4.89013 7.44748 5.09797L8.20014 6.95094ZM4.97258 4.41414L20.9726 20.4141L22.3868 18.9999L6.38679 2.99992L4.97258 4.41414ZM11.6798 20.2634C7.89339 20.2634 4.42466 17.8924 2.2022 14.0215L0.467746 15.0173C2.94527 19.3325 6.99415 22.2634 11.6798 22.2634V20.2634ZM0.467735 11.5095C-0.155916 12.5958 -0.155911 13.9311 0.467746 15.0173L2.2022 14.0215C1.9326 13.5519 1.9326 12.9749 2.2022 12.5053L0.467735 11.5095ZM21.1573 12.5052C21.3626 12.8627 21.4117 13.2826 21.3042 13.6701L23.2316 14.2044C23.4799 13.3084 23.3668 12.3367 22.8918 11.5094L21.1573 12.5052ZM14.674 6.76873C17.2514 7.65757 19.5394 9.68726 21.1573 12.5052L22.8918 11.5094C21.0834 8.35977 18.4478 5.95459 15.326 4.878L14.674 6.76873ZM18.9146 17.006C16.8801 19.0758 14.367 20.2634 11.6798 20.2634V22.2634C14.9897 22.2634 17.9956 20.7941 20.341 18.4079L18.9146 17.006ZM2.2022 12.5053C3.71737 9.86627 5.82167 7.91706 8.20014 6.95094L7.44748 5.09797C4.58162 6.26206 2.16221 8.55816 0.467735 11.5095L2.2022 12.5053ZM13.6194 12.7759C13.7252 13.1971 13.6911 13.6414 13.5221 14.0415L15.3646 14.8195C15.7025 14.0193 15.7708 13.1308 15.559 12.2884L13.6194 12.7759ZM13.5221 14.0415C13.3532 14.4416 13.0586 14.7758 12.6828 14.9937L13.686 16.7239C14.4375 16.2882 15.0267 15.6197 15.3646 14.8195L13.5221 14.0415ZM12.6828 14.9937C12.3071 15.2115 11.8707 15.3011 11.4395 15.249L11.1993 17.2345C12.0616 17.3388 12.9345 17.1596 13.686 16.7239L12.6828 14.9937ZM11.4395 15.249C11.0083 15.1968 10.6058 15.0057 10.2929 14.7045L8.90609 16.1456C9.53199 16.748 10.3369 17.1302 11.1993 17.2345L11.4395 15.249ZM10.2929 14.7045C9.97994 14.4034 9.77353 14.0085 9.70485 13.5797L7.73001 13.8959C7.86737 14.7536 8.28019 15.5433 8.90609 16.1456L10.2929 14.7045ZM9.70485 13.5797C9.63617 13.1508 9.70896 12.7113 9.91222 12.3275L8.14475 11.3915C7.73824 12.1591 7.59266 13.0382 7.73001 13.8959L9.70485 13.5797ZM9.91222 12.3275C10.1155 11.9436 10.4381 11.6364 10.8315 11.4522L9.98325 9.64098C9.19661 10.0094 8.55126 10.6238 8.14475 11.3915L9.91222 12.3275ZM10.8315 11.4522C11.2248 11.268 11.6674 11.2168 12.0924 11.3065L12.505 9.3495C11.6551 9.17027 10.7699 9.27259 9.98325 9.64098L10.8315 11.4522Z" fill="#A0AABD"/>
</svg>
