<svg width="200" height="200" viewBox="0 0 200 200" fill="none" xmlns="http://www.w3.org/2000/svg">
<path d="M103.224 54.3644C97.684 60.3404 94.824 68.2484 91.712 75.7764C88.6 83.3044 84.76 91.0044 78.056 95.6404C73.296 98.9324 65.936 97.3924 60.796 100.04C52.52 104.328 49.236 107.964 47.24 117.068C44.864 127.892 62.952 155.504 80.356 161.952C91.024 165.9 105.92 163.924 114.192 156.12C122.464 148.316 121.12 133.056 122.508 121.768C123.512 113.636 122.984 105.192 125.756 97.4844C128.212 90.6564 133.116 84.8764 135.32 77.9604C138.252 68.7604 135.656 56.5084 128.064 50.0884C120.608 43.7964 109.244 47.8644 103.224 54.3644Z" fill="#0039A6"/>
<g opacity="0.9">
<path d="M103.224 54.3644C97.684 60.3404 94.824 68.2484 91.712 75.7764C88.6 83.3044 84.76 91.0044 78.056 95.6404C73.296 98.9324 65.936 97.3924 60.796 100.04C52.52 104.328 49.236 107.964 47.24 117.068C44.864 127.892 62.952 155.504 80.356 161.952C91.024 165.9 105.92 163.924 114.192 156.12C122.464 148.316 121.12 133.056 122.508 121.768C123.512 113.636 122.984 105.192 125.756 97.4844C128.212 90.6564 133.116 84.8764 135.32 77.9604C138.252 68.7604 135.656 56.5084 128.064 50.0884C120.608 43.7964 109.244 47.8644 103.224 54.3644Z" fill="white" stroke="white" stroke-miterlimit="10"/>
</g>
<path d="M99.9998 177.036C142.833 177.036 177.556 175.009 177.556 172.508C177.556 170.008 142.833 167.98 99.9998 167.98C57.1669 167.98 22.4438 170.008 22.4438 172.508C22.4438 175.009 57.1669 177.036 99.9998 177.036Z" fill="#F5F5F5"/>
<path d="M58.9883 97.3103C62.676 93.458 62.258 87.0732 58.0547 83.0494C53.8513 79.0255 47.4543 78.8865 43.7666 82.7387C40.0789 86.591 40.4968 92.9758 44.7002 96.9996C48.9035 101.023 55.3005 101.163 58.9883 97.3103Z" fill="#0039A6"/>
<g opacity="0.8">
<path d="M58.9883 97.3103C62.676 93.458 62.258 87.0732 58.0547 83.0494C53.8513 79.0255 47.4543 78.8865 43.7666 82.7387C40.0789 86.591 40.4968 92.9758 44.7002 96.9996C48.9035 101.023 55.3005 101.163 58.9883 97.3103Z" fill="white"/>
</g>
<path d="M46.6764 83.6956C46.5924 83.6956 46.5106 83.6692 46.4425 83.6201C46.3744 83.571 46.3234 83.5017 46.2969 83.4221C46.2703 83.3424 46.2695 83.2565 46.2946 83.1763C46.3196 83.0962 46.3692 83.026 46.4364 82.9756C47.7833 82.0089 49.4067 81.5038 51.0644 81.5356C51.1705 81.5356 51.2722 81.5777 51.3472 81.6528C51.4222 81.7278 51.4644 81.8295 51.4644 81.9356C51.4644 82.0417 51.4222 82.1434 51.3472 82.2184C51.2722 82.2935 51.1705 82.3356 51.0644 82.3356C49.5797 82.3029 48.1244 82.752 46.9164 83.6156C46.8471 83.6675 46.7629 83.6956 46.6764 83.6956Z" fill="#0039A6"/>
<path d="M48.5683 97.4557C48.5026 97.4554 48.4381 97.4389 48.3803 97.4077C47.1544 96.7522 46.0908 95.8308 45.2671 94.7109C44.4435 93.5911 43.8808 92.3012 43.6203 90.9357C43.3661 89.7545 43.3779 88.5316 43.6546 87.3555C43.9313 86.1795 44.4661 85.0796 45.2203 84.1357C45.2882 84.054 45.3858 84.0027 45.4915 83.9929C45.5973 83.9832 45.7026 84.0158 45.7843 84.0837C45.866 84.1516 45.9174 84.2492 45.9271 84.3549C45.9369 84.4607 45.9042 84.566 45.8363 84.6477C45.155 85.5021 44.6726 86.4975 44.4243 87.5617C44.1759 88.6259 44.1677 89.732 44.4003 90.7997C44.6399 92.048 45.1549 93.2271 45.9078 94.2512C46.6606 95.2753 47.6324 96.1186 48.7523 96.7197C48.8305 96.7619 48.8924 96.829 48.9283 96.9103C48.9642 96.9916 48.9719 97.0825 48.9504 97.1687C48.9288 97.2549 48.8792 97.3315 48.8093 97.3864C48.7393 97.4412 48.6532 97.4713 48.5643 97.4717L48.5683 97.4557Z" fill="#0039A6"/>
<path d="M52.5723 98.5C51.677 98.4961 50.7877 98.3531 49.9363 98.076C49.8861 98.0597 49.8397 98.0337 49.7996 97.9995C49.7595 97.9652 49.7265 97.9234 49.7025 97.8765C49.6786 97.8295 49.6641 97.7782 49.6599 97.7256C49.6558 97.6731 49.662 97.6202 49.6783 97.57C49.6946 97.5199 49.7206 97.4734 49.7548 97.4333C49.7891 97.3932 49.8309 97.3602 49.8779 97.3362C49.9249 97.3123 49.9761 97.2978 50.0287 97.2936C50.0813 97.2895 50.1341 97.2957 50.1843 97.312C52.6443 98.112 55.1003 97.664 56.9203 96.112C57.8436 95.2971 58.5414 94.258 58.9464 93.095C59.3513 91.9319 59.4498 90.6842 59.2323 89.472C59.2153 89.3659 59.2412 89.2574 59.3042 89.1704C59.3672 89.0834 59.4622 89.025 59.5683 89.008C59.6744 88.991 59.7829 89.0169 59.8699 89.0799C59.9569 89.1429 60.0153 89.2379 60.0323 89.344C60.2748 90.691 60.1646 92.0778 59.7126 93.3696C59.2605 94.6614 58.4818 95.8142 57.4523 96.716C56.0959 97.8829 54.3615 98.5169 52.5723 98.5Z" fill="#0039A6"/>
<path d="M59.3002 88.4484C59.2153 88.4481 59.1328 88.4208 59.0644 88.3705C58.9961 88.3201 58.9456 88.2494 58.9202 88.1684C58.5522 87.0325 57.9498 85.9866 57.1519 85.0984C56.3539 84.2102 55.3783 83.4995 54.2882 83.0124C54.1906 82.97 54.1138 82.8905 54.0748 82.7915C54.0358 82.6925 54.0377 82.582 54.0802 82.4844C54.1226 82.3868 54.2021 82.3101 54.3011 82.2711C54.4001 82.2321 54.5106 82.234 54.6082 82.2764C55.802 82.8101 56.8704 83.5887 57.7441 84.5617C58.6178 85.5346 59.2774 86.6803 59.6802 87.9244C59.713 88.0252 59.7044 88.1349 59.6564 88.2294C59.6084 88.3239 59.5249 88.3955 59.4242 88.4284C59.3839 88.4406 59.3422 88.4473 59.3002 88.4484Z" fill="#0039A6"/>
<path d="M52.996 82.5599C52.9654 82.564 52.9345 82.564 52.904 82.5599C52.302 82.4196 51.686 82.3485 51.068 82.3479C50.9619 82.3479 50.8601 82.3057 50.7851 82.2307C50.7101 82.1557 50.668 82.0539 50.668 81.9479C50.668 81.8418 50.7101 81.74 50.7851 81.665C50.8601 81.59 50.9619 81.5479 51.068 81.5479C51.7415 81.5499 52.4125 81.6291 53.068 81.7839C53.1741 81.7961 53.271 81.8499 53.3373 81.9335C53.4037 82.0172 53.4342 82.1238 53.422 82.2299C53.4098 82.3359 53.3559 82.4328 53.2723 82.4992C53.1886 82.5656 53.0821 82.5961 52.976 82.5839L52.996 82.5599Z" fill="#0039A6"/>
<path d="M45.9404 92.1158C45.8586 92.1161 45.7788 92.0913 45.7116 92.0449C45.6443 91.9984 45.593 91.9324 45.5644 91.8558C45.1894 90.888 45.0575 89.8429 45.1803 88.8122C45.303 87.7815 45.6766 86.7966 46.2684 85.9438C46.8277 85.136 47.5769 84.4779 48.4501 84.0273C49.3233 83.5768 50.2938 83.3476 51.2764 83.3598C51.3824 83.3598 51.4842 83.402 51.5592 83.477C51.6342 83.552 51.6764 83.6538 51.6764 83.7598C51.6764 83.8659 51.6342 83.9677 51.5592 84.0427C51.4842 84.1177 51.3824 84.1598 51.2764 84.1598C50.4227 84.1498 49.5795 84.3487 48.8203 84.7391C48.061 85.1295 47.4088 85.6996 46.9204 86.3998C46.4015 87.1508 46.075 88.0178 45.9697 88.9245C45.8643 89.8312 45.9834 90.7499 46.3164 91.5998C46.3526 91.6991 46.3481 91.8086 46.3039 91.9045C46.2597 92.0004 46.1793 92.075 46.0804 92.1118C46.0342 92.1209 45.9869 92.1222 45.9404 92.1158Z" fill="#0039A6"/>
<path d="M52.2843 96.6837C51.0853 96.6436 49.9138 96.3147 48.8692 95.7249C47.8246 95.135 46.9378 94.3017 46.2843 93.2957C46.2357 93.2073 46.2224 93.1039 46.2468 93.0061C46.2713 92.9082 46.3318 92.8233 46.4162 92.7682C46.5007 92.713 46.6028 92.6919 46.7022 92.7088C46.8016 92.7258 46.8909 92.7797 46.9523 92.8597C47.5332 93.7546 48.3209 94.4966 49.249 95.0229C50.177 95.5493 51.2181 95.8445 52.2843 95.8837C52.3904 95.8837 52.4921 95.9259 52.5671 96.0009C52.6421 96.0759 52.6843 96.1776 52.6843 96.2837C52.6843 96.3898 52.6421 96.4916 52.5671 96.5666C52.4921 96.6416 52.3904 96.6837 52.2843 96.6837Z" fill="#0039A6"/>
<path d="M53.7803 96.5124C53.6889 96.515 53.5994 96.4863 53.5266 96.431C53.4538 96.3757 53.4022 96.2971 53.3803 96.2084C53.3549 96.1055 53.3714 95.9967 53.4261 95.9059C53.4809 95.8152 53.5694 95.7499 53.6723 95.7244C56.9163 94.9244 57.7563 92.0804 57.4883 89.8964C57.1403 87.0484 54.8923 84.1644 51.2643 84.1604C51.1582 84.1604 51.0564 84.1182 50.9814 84.0432C50.9064 83.9682 50.8643 83.8664 50.8643 83.7604C50.8643 83.6543 50.9064 83.5525 50.9814 83.4775C51.0564 83.4025 51.1582 83.3604 51.2643 83.3604C55.3563 83.3604 57.8923 86.6004 58.2843 89.8004C58.6843 93.1004 56.9523 95.7324 53.8643 96.5004C53.8368 96.5073 53.8086 96.5113 53.7803 96.5124Z" fill="#0039A6"/>
<path d="M49.6401 86.3684C49.5643 86.3678 49.4902 86.3457 49.4264 86.3046C49.3627 86.2636 49.3119 86.2052 49.2801 86.1364C49.235 86.0404 49.2299 85.9304 49.2659 85.8307C49.3019 85.7309 49.3761 85.6495 49.4721 85.6044C50.0853 85.3332 50.7496 85.1968 51.4201 85.2044C51.5262 85.2044 51.6279 85.2465 51.7029 85.3216C51.778 85.3966 51.8201 85.4983 51.8201 85.6044C51.8201 85.7105 51.778 85.8122 51.7029 85.8872C51.6279 85.9623 51.5262 86.0044 51.4201 86.0044C50.868 86.0048 50.3224 86.1234 49.8201 86.3524C49.7621 86.3714 49.7005 86.3769 49.6401 86.3684Z" fill="#0039A6"/>
<path d="M52.2122 94.8202C51.1992 94.804 50.212 94.4977 49.3676 93.9376C48.5233 93.3776 47.8572 92.5872 47.4482 91.6602C46.6202 89.8562 46.8642 87.9722 48.1002 86.6122C48.172 86.5345 48.2716 86.4883 48.3773 86.4838C48.483 86.4793 48.5862 86.5168 48.6642 86.5882C48.742 86.66 48.7882 86.7596 48.7927 86.8653C48.7972 86.971 48.7596 87.0742 48.6882 87.1522C48.1912 87.7144 47.8762 88.414 47.7848 89.1588C47.6934 89.9036 47.8299 90.6586 48.1762 91.3242C48.5297 92.1322 49.1129 92.8185 49.8532 93.2978C50.5935 93.7771 51.4583 94.0283 52.3402 94.0202C53.0074 94.0154 53.6589 93.8175 54.2161 93.4506C54.7732 93.0836 55.2123 92.5632 55.4802 91.9522C55.7815 91.2314 55.8723 90.44 55.742 89.6697C55.6117 88.8994 55.2658 88.1819 54.7442 87.6002C54.7101 87.5603 54.6841 87.5141 54.6679 87.4641C54.6516 87.4142 54.6453 87.3615 54.6494 87.3091C54.6535 87.2567 54.6679 87.2057 54.6917 87.1589C54.7155 87.112 54.7483 87.0704 54.7882 87.0362C54.8282 87.0021 54.8744 86.9761 54.9244 86.9599C54.9743 86.9436 55.027 86.9373 55.0793 86.9414C55.1317 86.9455 55.1828 86.9599 55.2296 86.9837C55.2764 87.0075 55.3181 87.0403 55.3522 87.0802C55.9731 87.7767 56.3836 88.6351 56.5358 89.5556C56.6881 90.4761 56.5759 91.421 56.2122 92.2802C55.884 93.0299 55.3463 93.6687 54.6636 94.12C53.981 94.5713 53.1825 94.8159 52.3642 94.8242L52.2122 94.8202Z" fill="#0039A6"/>
<path d="M53.896 86.7196C53.8205 86.72 53.7467 86.6977 53.684 86.6556C53.0086 86.2209 52.2232 85.9878 51.42 85.9836C51.3139 85.9836 51.2122 85.9415 51.1372 85.8664C51.0622 85.7914 51.02 85.6897 51.02 85.5836C51.02 85.4775 51.0622 85.3758 51.1372 85.3008C51.2122 85.2257 51.3139 85.1836 51.42 85.1836C52.3754 85.1872 53.3097 85.4648 54.112 85.9836C54.1845 86.0304 54.2399 86.0994 54.2699 86.1802C54.3 86.2611 54.3031 86.3495 54.2788 86.4322C54.2545 86.515 54.2041 86.5877 54.1351 86.6395C54.0661 86.6913 53.9823 86.7194 53.896 86.7196Z" fill="#0039A6"/>
<path d="M51.9999 93.0164C51.5326 93.0133 51.0715 92.9078 50.6493 92.7074C50.2271 92.507 49.8539 92.2165 49.5559 91.8564C49.1715 91.4164 48.9218 90.8751 48.8367 90.297C48.7516 89.7189 48.8346 89.1286 49.0759 88.5964C49.2913 88.1134 49.6438 87.7043 50.0897 87.4199C50.5356 87.1354 51.0551 86.9882 51.5839 86.9964C51.69 86.9964 51.7918 87.0386 51.8668 87.1136C51.9418 87.1886 51.9839 87.2903 51.9839 87.3964C51.9839 87.5025 51.9418 87.6043 51.8668 87.6793C51.7918 87.7543 51.69 87.7964 51.5839 87.7964C51.2099 87.7895 50.842 87.8923 50.5257 88.0921C50.2094 88.2918 49.9585 88.5798 49.8039 88.9204C49.6281 89.3132 49.5689 89.7484 49.6334 90.1739C49.6979 90.5994 49.8835 90.9974 50.1679 91.3204C50.4511 91.6674 50.827 91.9268 51.2519 92.0685C51.6768 92.2101 52.1332 92.2281 52.5679 92.1204C52.9216 92.0408 53.245 91.8613 53.4996 91.6031C53.7542 91.345 53.9292 91.0192 54.0039 90.6644C54.0269 90.5611 54.0899 90.471 54.1791 90.4141C54.2683 90.3571 54.3765 90.3378 54.4799 90.3604C54.5315 90.3713 54.5803 90.3923 54.6237 90.4222C54.6671 90.4521 54.7042 90.4902 54.7328 90.5344C54.7614 90.5787 54.781 90.6281 54.7905 90.6799C54.8 90.7318 54.7991 90.7849 54.7879 90.8364C54.682 91.337 54.4352 91.7969 54.0766 92.1618C53.718 92.5268 53.2626 92.7817 52.7639 92.8964C52.5149 92.9667 52.2585 93.007 51.9999 93.0164Z" fill="#0039A6"/>
<path d="M54.3282 89.8478C54.2399 89.8518 54.1529 89.8266 54.0805 89.7759C54.0081 89.7253 53.9546 89.6521 53.9282 89.5678C53.7685 89.0666 53.4565 88.6277 53.0357 88.3123C52.6148 87.9968 52.106 87.8205 51.5802 87.8078C51.4741 87.8078 51.3723 87.7657 51.2973 87.6907C51.2223 87.6156 51.1802 87.5139 51.1802 87.4078C51.1802 87.3017 51.2223 87.2 51.2973 87.125C51.3723 87.05 51.4741 87.0078 51.5802 87.0078C52.2756 87.0233 52.949 87.255 53.5067 87.6708C54.0644 88.0866 54.4788 88.6657 54.6922 89.3278C54.7083 89.378 54.7144 89.4308 54.7101 89.4833C54.7058 89.5359 54.6911 89.587 54.6669 89.6339C54.6428 89.6807 54.6096 89.7223 54.5693 89.7563C54.529 89.7902 54.4824 89.8159 54.4322 89.8318C54.3984 89.8417 54.3634 89.8471 54.3282 89.8478Z" fill="#0039A6"/>
<path d="M52.1081 91.3516C52.002 91.3516 51.9003 91.3095 51.8253 91.2345C51.7503 91.1595 51.7081 91.0577 51.7081 90.9516C51.7081 90.8455 51.7503 90.7438 51.8253 90.6688C51.9003 90.5938 52.002 90.5516 52.1081 90.5516C52.1627 90.5517 52.2168 90.5406 52.267 90.5191C52.3171 90.4975 52.3623 90.4658 52.3998 90.4261C52.4373 90.3864 52.4662 90.3394 52.4849 90.2881C52.5035 90.2368 52.5114 90.1821 52.5081 90.1276C52.5103 90.0498 52.4969 89.9722 52.4688 89.8995C52.4407 89.8269 52.3984 89.7605 52.3445 89.7043C52.2905 89.6481 52.2259 89.6032 52.1544 89.5722C52.083 89.5412 52.006 89.5247 51.9281 89.5236C51.8694 89.5252 51.8117 89.5384 51.7581 89.5624C51.7046 89.5864 51.6563 89.6208 51.6161 89.6636C51.5751 89.712 51.5441 89.768 51.5249 89.8284C51.5057 89.8888 51.4986 89.9525 51.5041 90.0156C51.5073 90.0682 51.5001 90.1208 51.4829 90.1705C51.4657 90.2203 51.4389 90.2661 51.4039 90.3055C51.369 90.3449 51.3267 90.377 51.2794 90.4C51.232 90.423 51.1807 90.4365 51.1281 90.4396C51.0756 90.4428 51.023 90.4356 50.9732 90.4184C50.9235 90.4012 50.8776 90.3744 50.8383 90.3394C50.7989 90.3045 50.7668 90.2622 50.7438 90.2149C50.7207 90.1676 50.7073 90.1162 50.7041 90.0636C50.6899 89.8958 50.7101 89.7268 50.7636 89.567C50.817 89.4073 50.9026 89.2602 51.0149 89.1347C51.1273 89.0092 51.2642 88.908 51.4171 88.8373C51.57 88.7666 51.7357 88.7279 51.9041 88.7236C52.0872 88.7241 52.2684 88.761 52.4372 88.832C52.606 88.9031 52.759 89.0069 52.8873 89.1375C53.0157 89.2681 53.1168 89.4228 53.1849 89.5928C53.2531 89.7627 53.2868 89.9445 53.2841 90.1276C53.2873 90.2872 53.2586 90.4459 53.1998 90.5942C53.1409 90.7426 53.053 90.8777 52.9412 90.9917C52.8295 91.1057 52.6961 91.1962 52.549 91.2581C52.4018 91.3199 52.2438 91.3517 52.0841 91.3516H52.1081Z" fill="#0039A6"/>
<path d="M62.4003 90.0201C62.8883 95.5921 58.7643 100.108 53.2003 100.108H52.7683C58.0723 99.8361 61.9243 95.4281 61.4523 90.0321C61.1797 87.3908 59.9819 84.9311 58.0706 83.0878C56.1593 81.2446 53.6577 80.1367 51.0083 79.9601C51.1483 79.9601 51.2923 79.9601 51.4363 79.9601C57.0163 79.9361 61.9283 84.4521 62.4003 90.0201Z" fill="#0039A6"/>
<g opacity="0.4">
<path d="M62.4003 90.0201C62.8883 95.5921 58.7643 100.108 53.2003 100.108H52.7683C58.0723 99.8361 61.9243 95.4281 61.4523 90.0321C61.1797 87.3908 59.9819 84.9311 58.0706 83.0878C56.1593 81.2446 53.6577 80.1367 51.0083 79.9601C51.1483 79.9601 51.2923 79.9601 51.4363 79.9601C57.0163 79.9361 61.9283 84.4521 62.4003 90.0201Z" fill="white"/>
</g>
<path d="M70.5682 40.8553C70.578 40.9747 70.594 41.0935 70.6162 41.2113C70.7671 41.982 71.1627 42.6834 71.7442 43.2113C72.403 43.8282 73.2696 44.1751 74.1722 44.1833H107.968C108.363 44.1913 108.755 44.1207 109.122 43.9757C109.489 43.8307 109.823 43.6142 110.106 43.3388C110.388 43.0633 110.613 42.7344 110.767 42.3713C110.922 42.0081 111.002 41.6179 111.004 41.2233C111.01 41.1047 111.01 40.9859 111.004 40.8673C110.91 39.9717 110.492 39.1412 109.83 38.5315C109.167 37.9218 108.304 37.5747 107.404 37.5553H73.6002C73.1764 37.5467 72.7557 37.6284 72.3659 37.7949C71.9761 37.9614 71.6262 38.209 71.3395 38.5211C71.0527 38.8332 70.8356 39.2027 70.7026 39.6052C70.5697 40.0076 70.5238 40.4338 70.5682 40.8553Z" fill="#0039A6"/>
<path opacity="0.8" d="M70.5682 40.8553C70.578 40.9747 70.594 41.0935 70.6162 41.2113C70.7671 41.982 71.1627 42.6834 71.7442 43.2113C72.403 43.8282 73.2696 44.1751 74.1722 44.1833H107.968C108.363 44.1913 108.755 44.1207 109.122 43.9757C109.489 43.8307 109.823 43.6142 110.106 43.3388C110.388 43.0633 110.613 42.7344 110.767 42.3713C110.922 42.0081 111.002 41.6179 111.004 41.2233C111.01 41.1047 111.01 40.9859 111.004 40.8673C110.91 39.9717 110.492 39.1412 109.83 38.5315C109.167 37.9218 108.304 37.5747 107.404 37.5553H73.6002C73.1764 37.5467 72.7557 37.6284 72.3659 37.7949C71.9761 37.9614 71.6262 38.209 71.3395 38.5211C71.0527 38.8332 70.8356 39.2027 70.7026 39.6052C70.5697 40.0076 70.5238 40.4338 70.5682 40.8553Z" fill="white"/>
<path d="M111.004 41.1993C111.004 41.3064 110.996 41.4134 110.98 41.5193C110.861 40.644 110.433 39.8402 109.772 39.2533C109.112 38.6664 108.264 38.3351 107.38 38.3193L71.4482 38.3993C71.7331 38.1222 72.0698 37.904 72.4391 37.7571C72.8083 37.6102 73.2029 37.5376 73.6002 37.5433H107.396C108.297 37.5627 109.159 37.9098 109.822 38.5195C110.484 39.1292 110.902 39.9597 110.996 40.8553C111.004 40.9698 111.007 41.0846 111.004 41.1993Z" fill="#0039A6"/>
<path opacity="0.5" d="M111.004 41.1993C111.004 41.3064 110.996 41.4134 110.98 41.5193C110.861 40.644 110.433 39.8402 109.772 39.2533C109.112 38.6664 108.264 38.3351 107.38 38.3193L71.4482 38.3993C71.7331 38.1222 72.0698 37.904 72.4391 37.7571C72.8083 37.6102 73.2029 37.5376 73.6002 37.5433H107.396C108.297 37.5627 109.159 37.9098 109.822 38.5195C110.484 39.1292 110.902 39.9597 110.996 40.8553C111.004 40.9698 111.007 41.0846 111.004 41.1993Z" fill="white"/>
<path d="M105.2 39.144L105.344 40.744L106.848 40.184L107.204 40.984L105.668 41.496L106.772 42.852L106.08 43.36L105.004 41.952L104.204 43.36L103.448 42.852L104.3 41.496L102.7 40.984L102.916 40.184L104.536 40.724L104.392 39.124L105.2 39.144Z" fill="#0039A6"/>
<path d="M95.94 39.1437L96.084 40.7437L97.588 40.1837L97.948 40.9837L96.4 41.5077L97.504 42.8637L96.816 43.3717L95.74 41.9637L94.94 43.3717L94.18 42.8637L95.036 41.5077L93.436 40.9957L93.652 40.1957L95.272 40.7357L95.132 39.1357L95.94 39.1437Z" fill="#0039A6"/>
<path d="M86.7002 39.1437L86.8402 40.7437L88.3442 40.1837L88.7042 40.9837L87.1642 41.4957L88.2682 42.8517L87.6002 43.3717L86.5242 41.9637L85.7242 43.3717L84.9682 42.8637L85.8202 41.5077L84.2202 40.9957L84.4402 40.1957L86.0402 40.7357L85.9002 39.1357L86.7002 39.1437Z" fill="#0039A6"/>
<path d="M77.4561 39.144L77.5961 40.744L79.1041 40.184L79.4601 40.984L77.9201 41.496L79.0281 42.852L78.3361 43.36L77.2601 41.952L76.4601 43.36L75.7041 42.852L76.5561 41.496L74.9561 40.984L75.1721 40.184L76.7721 40.724L76.6321 39.124L77.4561 39.144Z" fill="#0039A6"/>
<path d="M99.8602 35.9756H98.2842V36.3756H99.8602V35.9756Z" fill="#0039A6"/>
<path d="M106.632 35.9756H101.492V36.3756H106.632V35.9756Z" fill="#0039A6"/>
<path opacity="0.8" d="M159.116 50.8956L157.48 69.5996C157.417 70.1966 157.138 70.7501 156.697 71.1565C156.255 71.5629 155.68 71.7944 155.08 71.8076H142.092C141.811 71.8092 141.533 71.7514 141.275 71.6381C141.018 71.5249 140.787 71.3587 140.599 71.1503C140.41 70.942 140.267 70.6962 140.18 70.429C140.093 70.1618 140.063 69.8792 140.092 69.5996L141.728 50.8916C141.788 50.2937 142.066 49.7387 142.509 49.3318C142.951 48.9249 143.527 48.6943 144.128 48.6836H157.116C157.397 48.682 157.676 48.7399 157.934 48.8534C158.191 48.9669 158.422 49.1335 158.611 49.3423C158.799 49.551 158.942 49.7973 159.029 50.065C159.116 50.3327 159.146 50.6157 159.116 50.8956Z" fill="#0039A6"/>
<path opacity="0.8" d="M159.116 50.8956L157.48 69.5996C157.417 70.1966 157.138 70.7501 156.697 71.1565C156.255 71.5629 155.68 71.7944 155.08 71.8076H142.092C141.811 71.8092 141.533 71.7514 141.275 71.6381C141.018 71.5249 140.787 71.3587 140.599 71.1503C140.41 70.942 140.267 70.6962 140.18 70.429C140.093 70.1618 140.063 69.8792 140.092 69.5996L141.728 50.8916C141.788 50.2937 142.066 49.7387 142.509 49.3318C142.951 48.9249 143.527 48.6943 144.128 48.6836H157.116C157.397 48.682 157.676 48.7399 157.934 48.8534C158.191 48.9669 158.422 49.1335 158.611 49.3423C158.799 49.551 158.942 49.7973 159.029 50.065C159.116 50.3327 159.146 50.6157 159.116 50.8956Z" fill="white"/>
<path d="M142.912 53.9113H142.876C142.77 53.9022 142.673 53.8515 142.604 53.7706C142.536 53.6896 142.503 53.5848 142.512 53.4793L142.664 51.7673C142.673 51.6676 142.719 51.5749 142.793 51.5075C142.867 51.4401 142.964 51.4029 143.064 51.4033H144.872C144.978 51.4033 145.079 51.4455 145.155 51.5205C145.23 51.5955 145.272 51.6972 145.272 51.8033C145.272 51.9094 145.23 52.0112 145.155 52.0862C145.079 52.1612 144.978 52.2033 144.872 52.2033H143.432L143.312 53.5473C143.303 53.6471 143.257 53.7398 143.182 53.8072C143.108 53.8746 143.012 53.9117 142.912 53.9113Z" fill="#0039A6"/>
<path d="M157.456 53.9113H157.42C157.314 53.9022 157.217 53.8515 157.149 53.7706C157.08 53.6896 157.047 53.5848 157.056 53.4793L157.168 52.2033H155.8C155.694 52.2033 155.592 52.1612 155.517 52.0862C155.442 52.0112 155.4 51.9094 155.4 51.8033C155.4 51.6972 155.442 51.5955 155.517 51.5205C155.592 51.4455 155.694 51.4033 155.8 51.4033H157.6C157.656 51.4031 157.711 51.4145 157.762 51.4368C157.813 51.4591 157.859 51.4919 157.896 51.5329C157.934 51.574 157.963 51.6224 157.98 51.6752C157.998 51.7279 158.005 51.7839 158 51.8393L157.848 53.5473C157.839 53.6457 157.794 53.7373 157.722 53.8045C157.649 53.8717 157.555 53.9097 157.456 53.9113Z" fill="#0039A6"/>
<path d="M143.6 66.82H141.792C141.737 66.8199 141.683 66.8084 141.633 66.7864C141.582 66.7644 141.537 66.7323 141.5 66.692C141.463 66.6513 141.434 66.6033 141.416 66.5509C141.398 66.4986 141.391 66.4431 141.396 66.388L141.544 64.676C141.553 64.57 141.604 64.4718 141.685 64.4032C141.767 64.3345 141.872 64.301 141.978 64.31C142.084 64.3191 142.182 64.3698 142.251 64.4512C142.319 64.5326 142.353 64.638 142.344 64.744L142.232 66.02H143.6C143.706 66.02 143.808 66.0622 143.883 66.1372C143.958 66.2122 144 66.314 144 66.42C144 66.5261 143.958 66.6279 143.883 66.7029C143.808 66.7779 143.706 66.82 143.6 66.82Z" fill="#0039A6"/>
<path d="M156.324 66.82H154.52C154.414 66.82 154.312 66.7778 154.237 66.7028C154.162 66.6278 154.12 66.526 154.12 66.42C154.12 66.3139 154.162 66.2121 154.237 66.1371C154.312 66.0621 154.414 66.02 154.52 66.02H155.96L156.076 64.676C156.085 64.5705 156.136 64.4729 156.217 64.4047C156.298 64.3364 156.403 64.3031 156.508 64.312C156.614 64.3211 156.711 64.3717 156.779 64.4527C156.848 64.5337 156.881 64.6384 156.872 64.744L156.724 66.456C156.715 66.5557 156.669 66.6484 156.595 66.7158C156.521 66.7832 156.424 66.8204 156.324 66.82Z" fill="#0039A6"/>
<path d="M154.947 60.3703C155.85 56.8685 154.3 53.4413 151.485 52.7153C148.67 51.9894 145.656 54.2397 144.753 57.7415C143.85 61.2433 145.4 64.6705 148.215 65.3965C151.03 66.1224 154.044 63.8721 154.947 60.3703Z" fill="white"/>
<path d="M151.42 69.012H146.24L146.692 63.832H151.872L151.42 69.012Z" fill="white"/>
<path d="M157.48 69.5999C157.417 70.1969 157.138 70.7504 156.697 71.1568C156.255 71.5632 155.68 71.7947 155.08 71.8079H142.092C141.811 71.8094 141.533 71.7517 141.275 71.6384C141.018 71.5252 140.787 71.359 140.599 71.1506C140.41 70.9423 140.267 70.6965 140.18 70.4293C140.093 70.1621 140.063 69.8795 140.092 69.5999C140.092 69.5999 146.06 67.7119 146.796 67.7119H151.408L157.48 69.5999Z" fill="white"/>
<path d="M159.87 56.3619L159.265 63.709L159.664 63.7418L160.269 56.3947L159.87 56.3619Z" fill="#0039A6"/>
<path d="M160.291 53.0003L160.172 54.4434L160.571 54.4762L160.69 53.0331L160.291 53.0003Z" fill="#0039A6"/>
<path d="M146.352 97.6279H144.776V98.0279H146.352V97.6279Z" fill="#0039A6"/>
<path d="M153.124 97.6279H147.984V98.0279H153.124V97.6279Z" fill="#0039A6"/>
<path d="M162.532 90.7997L161.536 102.2C161.484 102.704 161.25 103.171 160.877 103.514C160.504 103.856 160.018 104.051 159.512 104.06C159.274 104.064 159.037 104.017 158.818 103.923C158.599 103.829 158.403 103.689 158.242 103.513C158.081 103.337 157.96 103.129 157.886 102.903C157.811 102.676 157.786 102.437 157.812 102.2L158.8 90.7997C158.892 89.9495 158.802 89.0894 158.536 88.2765C158.27 87.4636 157.835 86.7166 157.258 86.0848C156.682 85.4531 155.978 84.9512 155.192 84.6124C154.407 84.2736 153.559 84.1057 152.704 84.1197H148.64C146.822 84.1541 145.08 84.8525 143.742 86.083C142.404 87.3136 141.562 88.9913 141.376 90.7997L140.976 95.4557H137.256L137.656 90.7997C138.156 85.0637 143.232 80.3997 148.964 80.3997H153.044C154.375 80.3778 155.696 80.6392 156.918 81.1667C158.141 81.6942 159.237 82.4756 160.134 83.4592C161.031 84.4427 161.709 85.6059 162.123 86.8715C162.536 88.1371 162.676 89.4761 162.532 90.7997Z" fill="#0039A6"/>
<g opacity="0.5">
<path d="M162.532 90.7997L161.536 102.2C161.484 102.704 161.25 103.171 160.877 103.514C160.504 103.856 160.018 104.051 159.512 104.06C159.274 104.064 159.037 104.017 158.818 103.923C158.599 103.829 158.403 103.689 158.242 103.513C158.081 103.337 157.96 103.129 157.886 102.903C157.811 102.676 157.786 102.437 157.812 102.2L158.8 90.7997C158.892 89.9495 158.802 89.0894 158.536 88.2765C158.27 87.4636 157.835 86.7166 157.258 86.0848C156.682 85.4531 155.978 84.9512 155.192 84.6124C154.407 84.2736 153.559 84.1057 152.704 84.1197H148.64C146.822 84.1541 145.08 84.8525 143.742 86.083C142.404 87.3136 141.562 88.9913 141.376 90.7997L140.976 95.4557H137.256L137.656 90.7997C138.156 85.0637 143.232 80.3997 148.964 80.3997H153.044C154.375 80.3778 155.696 80.6392 156.918 81.1667C158.141 81.6942 159.237 82.4756 160.134 83.4592C161.031 84.4427 161.709 85.6059 162.123 86.8715C162.536 88.1371 162.676 89.4761 162.532 90.7997Z" fill="white"/>
</g>
<path d="M162.8 101.784L160.86 124C160.79 124.688 160.469 125.327 159.959 125.796C159.449 126.264 158.784 126.528 158.092 126.54H135.876C135.551 126.545 135.228 126.482 134.929 126.353C134.63 126.225 134.362 126.034 134.142 125.794C133.923 125.553 133.757 125.269 133.656 124.96C133.555 124.65 133.521 124.323 133.556 124L135.5 101.784C135.545 101.341 135.693 100.914 135.934 100.54C136.174 100.165 136.5 99.8526 136.884 99.6276C137.301 99.3723 137.779 99.2341 138.268 99.2276H160.48C160.934 99.2251 161.379 99.3513 161.764 99.5916C162.123 99.8246 162.411 100.153 162.594 100.54C162.777 100.927 162.848 101.358 162.8 101.784Z" fill="#0039A6"/>
<path d="M139.7 111.487L145.472 120.371L164.508 101.335C164.538 101.3 164.553 101.255 164.553 101.21C164.552 101.164 164.535 101.119 164.504 101.085C164.474 101.051 164.432 101.028 164.386 101.022C164.341 101.016 164.295 101.026 164.256 101.051L146.116 115.271L142.688 109.747L139.7 111.487Z" fill="white"/>
<path d="M48.7997 68.524H34.3277C33.6581 68.5119 33.0161 68.2549 32.5231 67.8017C32.0301 67.3484 31.7201 66.7303 31.6517 66.064L30.3997 51.6C30.365 51.2868 30.3974 50.9698 30.4949 50.6701C30.5924 50.3705 30.7527 50.095 30.9651 49.8622C31.1774 49.6294 31.437 49.4446 31.7265 49.32C32.016 49.1955 32.3287 49.1341 32.6437 49.14H47.0997C47.7668 49.1552 48.4054 49.4136 48.8953 49.8666C49.3852 50.3197 49.6926 50.9362 49.7597 51.6L51.0237 66.056C51.0595 66.3682 51.0285 66.6843 50.9327 66.9836C50.8369 67.2828 50.6787 67.5582 50.4683 67.7916C50.258 68.025 50.0005 68.211 49.7128 68.3373C49.4251 68.4636 49.1139 68.5272 48.7997 68.524Z" fill="#0039A6"/>
<path opacity="0.8" d="M48.7997 68.524H34.3277C33.6581 68.5119 33.0161 68.2549 32.5231 67.8017C32.0301 67.3484 31.7201 66.7303 31.6517 66.064L30.3997 51.6C30.365 51.2868 30.3974 50.9698 30.4949 50.6701C30.5924 50.3705 30.7527 50.095 30.9651 49.8622C31.1774 49.6294 31.437 49.4446 31.7265 49.32C32.016 49.1955 32.3287 49.1341 32.6437 49.14H47.0997C47.7668 49.1552 48.4054 49.4136 48.8953 49.8666C49.3852 50.3197 49.6926 50.9362 49.7597 51.6L51.0237 66.056C51.0595 66.3682 51.0285 66.6843 50.9327 66.9836C50.8369 67.2828 50.6787 67.5582 50.4683 67.7916C50.258 68.025 50.0005 68.211 49.7128 68.3373C49.4251 68.4636 49.1139 68.5272 48.7997 68.524Z" fill="white"/>
<path d="M31.6597 60.2919C31.6597 60.2919 36.7997 53.1359 40.5837 53.3199C44.3677 53.5039 50.6557 60.1199 50.6557 60.1199C50.6557 60.1199 41.3877 64.9879 31.6597 60.2919Z" fill="white"/>
<path d="M31.824 60.3994L31.5 60.1674C31.708 59.8754 36.608 53.1074 40.44 53.1074H40.596C44.42 53.2914 50.54 59.6994 50.8 59.9714L50.512 60.2474C50.448 60.1834 44.24 53.6834 40.576 53.5074H40.44C36.8 53.5154 31.872 60.3394 31.824 60.3994Z" fill="#263238"/>
<path d="M31.1279 60.5434C30.3519 60.5434 29.3439 60.2554 28.9879 59.1594C28.9714 59.109 28.9757 59.0542 28.9997 59.0069C29.0237 58.9597 29.0655 58.9239 29.1159 58.9074C29.1408 58.8987 29.1672 58.8952 29.1935 58.8969C29.2199 58.8987 29.2456 58.9058 29.2691 58.9177C29.2926 58.9297 29.3135 58.9463 29.3305 58.9665C29.3475 58.9867 29.3602 59.0101 29.3679 59.0354C29.8279 60.4514 31.5479 60.1114 31.6199 60.0954C31.6717 60.0859 31.7253 60.0968 31.7693 60.1258C31.8133 60.1549 31.8443 60.1999 31.8559 60.2514C31.8611 60.2771 31.8612 60.3037 31.8563 60.3295C31.8513 60.3552 31.8412 60.3798 31.8267 60.4017C31.8123 60.4236 31.7936 60.4425 31.7718 60.4572C31.75 60.4719 31.7256 60.4822 31.6999 60.4874C31.5115 60.5247 31.3199 60.5434 31.1279 60.5434Z" fill="#263238"/>
<path d="M34.1799 57.472C34.1352 57.4728 34.0916 57.4588 34.0559 57.432C33.9959 57.384 32.5759 56.288 32.2159 55.172C32.1995 55.1216 32.2037 55.0667 32.2277 55.0195C32.2517 54.9722 32.2935 54.9364 32.3439 54.92C32.3943 54.9046 32.4487 54.9094 32.4956 54.9333C32.5426 54.9571 32.5785 54.9982 32.5959 55.048C32.9199 56.044 34.2839 57.104 34.2999 57.112C34.3417 57.1444 34.369 57.192 34.3757 57.2445C34.3825 57.297 34.3681 57.35 34.3359 57.392C34.3177 57.4163 34.2941 57.4361 34.2671 57.45C34.2401 57.4638 34.2102 57.4713 34.1799 57.472Z" fill="#263238"/>
<path d="M37.1161 54.7477C37.0637 54.7447 37.0144 54.722 36.9781 54.6842C36.9417 54.6463 36.921 54.5962 36.9201 54.5437C36.6865 53.6725 36.3966 52.8174 36.0521 51.9837C35.9521 51.7197 35.8801 51.5277 35.8641 51.4797C35.8561 51.4543 35.8533 51.4274 35.8559 51.4009C35.8585 51.3743 35.8663 51.3485 35.879 51.3251C35.8917 51.3016 35.9089 51.2809 35.9297 51.2641C35.9505 51.2474 35.9744 51.2351 36.0001 51.2277C36.0253 51.2204 36.0517 51.2181 36.0778 51.2209C36.1039 51.2238 36.1292 51.2317 36.1523 51.2444C36.1753 51.257 36.1956 51.274 36.212 51.2945C36.2285 51.315 36.2407 51.3385 36.2481 51.3637C36.2481 51.4117 36.3321 51.5877 36.4241 51.8397C36.9841 53.3077 37.3281 54.2717 37.3201 54.5517C37.3201 54.5782 37.3148 54.6043 37.3044 54.6286C37.2941 54.6529 37.2789 54.6749 37.2599 54.6932C37.2408 54.7115 37.2183 54.7258 37.1936 54.7352C37.1688 54.7445 37.1425 54.7488 37.1161 54.7477Z" fill="#263238"/>
<path d="M40.5838 53.5198C40.534 53.5182 40.4863 53.4988 40.4496 53.465C40.4129 53.4312 40.3896 53.3854 40.3838 53.3358L40.1038 50.1358C40.0991 50.0828 40.1156 50.03 40.1497 49.9891C40.1838 49.9482 40.2328 49.9226 40.2858 49.9178C40.3389 49.913 40.3916 49.9295 40.4325 49.9637C40.4734 49.9978 40.4991 50.0468 40.5038 50.0998L40.7838 53.3238C40.7873 53.376 40.7705 53.4276 40.737 53.4678C40.7035 53.508 40.6558 53.5338 40.6038 53.5398L40.5838 53.5198Z" fill="#263238"/>
<path d="M51.2558 60.324C51.0601 60.325 50.8647 60.3089 50.6718 60.276C50.646 60.2708 50.6216 60.2605 50.5998 60.2458C50.578 60.2311 50.5594 60.2123 50.5449 60.1903C50.5304 60.1684 50.5204 60.1439 50.5154 60.1181C50.5104 60.0923 50.5105 60.0658 50.5158 60.04C50.52 60.0142 50.5295 59.9895 50.5437 59.9675C50.5578 59.9454 50.5763 59.9265 50.5981 59.9119C50.6198 59.8973 50.6443 59.8873 50.67 59.8825C50.6958 59.8777 50.7222 59.8782 50.7478 59.884C50.7478 59.884 51.7278 60.072 52.3278 59.648C52.4561 59.5546 52.5632 59.435 52.6418 59.2971C52.7204 59.1591 52.7688 59.0061 52.7838 58.848C52.7877 58.8218 52.7968 58.7965 52.8105 58.7738C52.8242 58.751 52.8422 58.7312 52.8636 58.7154C52.8849 58.6996 52.9092 58.6882 52.9349 58.6818C52.9607 58.6753 52.9875 58.6741 53.0138 58.678C53.04 58.682 53.0653 58.691 53.088 58.7047C53.1108 58.7184 53.1306 58.7365 53.1464 58.7578C53.1622 58.7792 53.1736 58.8034 53.18 58.8292C53.1864 58.855 53.1877 58.8818 53.1838 58.908C53.1596 59.1185 53.0916 59.3216 52.9841 59.5041C52.8766 59.6867 52.7321 59.8447 52.5598 59.968C52.1711 60.2158 51.7164 60.3399 51.2558 60.324Z" fill="#263238"/>
<path d="M47.6637 57.26C47.6356 57.2602 47.6077 57.2542 47.5821 57.2425C47.5566 57.2307 47.5339 57.2135 47.5157 57.192C47.497 57.1734 47.4821 57.1513 47.4719 57.1269C47.4618 57.1026 47.4565 57.0764 47.4565 57.05C47.4565 57.0236 47.4618 56.9975 47.4719 56.9731C47.4821 56.9487 47.497 56.9266 47.5157 56.908C47.5157 56.908 48.7157 55.852 48.8437 54.868C48.8526 54.8159 48.8813 54.7693 48.9238 54.738C48.9663 54.7067 49.0193 54.6931 49.0717 54.7C49.0977 54.7039 49.1227 54.7129 49.1452 54.7265C49.1678 54.7401 49.1874 54.758 49.203 54.7792C49.2186 54.8003 49.2299 54.8244 49.2362 54.8499C49.2425 54.8755 49.2437 54.902 49.2397 54.928C49.0717 56.056 47.8317 57.16 47.7797 57.208C47.7484 57.2386 47.7073 57.257 47.6637 57.26Z" fill="#263238"/>
<path d="M44.284 54.9355H44.248C44.1959 54.9257 44.1496 54.896 44.119 54.8527C44.0883 54.8094 44.0758 54.7559 44.084 54.7035C44.084 54.6795 44.524 52.1075 44.604 51.5795C44.6079 51.5532 44.617 51.528 44.6307 51.5052C44.6444 51.4825 44.6624 51.4626 44.6838 51.4468C44.7051 51.431 44.7294 51.4196 44.7552 51.4132C44.7809 51.4068 44.8077 51.4055 44.834 51.4095C44.8603 51.4134 44.8855 51.4225 44.9082 51.4362C44.931 51.4499 44.9508 51.4679 44.9666 51.4893C44.9824 51.5106 44.9938 51.5349 45.0002 51.5606C45.0067 51.5864 45.0079 51.6132 45.004 51.6395C44.924 52.1715 44.488 54.7475 44.484 54.7715C44.4755 54.8181 44.4507 54.8601 44.4141 54.8901C44.3774 54.9202 44.3313 54.9362 44.284 54.9355Z" fill="#263238"/>
<path d="M44.4012 61.1298C46.0572 59.3999 45.8679 56.5313 43.9785 54.7226C42.089 52.9138 39.2149 52.8499 37.5589 54.5797C35.903 56.3096 36.0922 59.1782 37.9817 60.9869C39.8711 62.7957 42.7452 62.8596 44.4012 61.1298Z" fill="#0039A6"/>
<path opacity="0.3" d="M42.856 57.852C42.8619 57.7507 42.8619 57.6492 42.856 57.548C42.8022 57.0265 42.5593 56.5427 42.1731 56.1882C41.7869 55.8337 41.2841 55.633 40.76 55.624C40.5136 55.6197 40.2691 55.6679 40.0428 55.7654C39.8165 55.8629 39.6136 56.0074 39.4475 56.1894C39.2814 56.3714 39.1559 56.5867 39.0794 56.821C39.003 57.0552 38.9772 57.303 39.004 57.548C39.0106 57.6512 39.0294 57.7532 39.06 57.852H36.452C36.3882 57.2752 36.4481 56.6914 36.6277 56.1396C36.8072 55.5878 37.1023 55.0806 37.4933 54.6518C37.8843 54.2229 38.3622 53.8824 38.8951 53.6527C39.428 53.4231 40.0038 53.3097 40.584 53.32C41.8177 53.3428 43.0004 53.8163 43.909 54.6512C44.8176 55.486 45.3892 56.6246 45.516 57.852H42.856Z" fill="black"/>
<path opacity="0.7" d="M42.8521 57.5473C42.8581 57.6486 42.8581 57.7501 42.8521 57.8513C42.8233 58.2966 42.6238 58.7135 42.2952 59.0153C41.9666 59.3171 41.5342 59.4805 41.0881 59.4713C40.6179 59.4625 40.1636 59.2991 39.7956 59.0063C39.4276 58.7134 39.1663 58.3075 39.0521 57.8513C39.0215 57.7525 39.0027 57.6505 38.9961 57.5473C38.9694 57.3024 38.9951 57.0545 39.0716 56.8203C39.148 56.586 39.2735 56.3708 39.4396 56.1888C39.6057 56.0068 39.8087 55.8622 40.035 55.7647C40.2613 55.6672 40.5057 55.619 40.7521 55.6233C41.277 55.6313 41.7807 55.8316 42.1677 56.1862C42.5548 56.5408 42.7983 57.0251 42.8521 57.5473Z" fill="black"/>
<path opacity="0.7" d="M43.8957 55.6591C43.9172 55.8588 43.8961 56.0608 43.8337 56.2516C43.7712 56.4425 43.6689 56.6179 43.5334 56.7662C43.398 56.9145 43.2326 57.0323 43.0481 57.1118C42.8637 57.1912 42.6645 57.2305 42.4637 57.2271C42.0372 57.2186 41.6286 57.0545 41.3148 56.7657C41.0009 56.4769 40.8035 56.0834 40.7597 55.6591C40.7374 55.4593 40.7581 55.2571 40.8203 55.0659C40.8825 54.8747 40.9848 54.6991 41.1203 54.5506C41.2559 54.4022 41.4216 54.2844 41.6064 54.2052C41.7911 54.1259 41.9907 54.087 42.1917 54.0911C42.6183 54.0987 43.0274 54.2625 43.3414 54.5515C43.6555 54.8405 43.8527 55.2345 43.8957 55.6591Z" fill="white"/>
<path d="M37.7039 47.3516H36.1279V47.7516H37.7039V47.3516Z" fill="#0039A6"/>
<path d="M44.4759 47.3516H39.3359V47.7516H44.4759V47.3516Z" fill="#0039A6"/>
<path d="M110.4 76.6604L110.536 76.8244L110.72 77.0364C110.852 77.1764 110.98 77.3244 111.12 77.4604C111.396 77.7484 111.696 78.0284 112 78.3124C112.608 78.8726 113.244 79.4 113.908 79.8924C114.584 80.3964 115.296 80.8564 116.008 81.3124C116.408 81.5284 116.736 81.7564 117.112 81.9644L117.98 82.4444C118.106 82.5 118.248 82.5086 118.38 82.4684C118.66 82.3844 120.268 80.7924 120.78 80.2004C121.916 78.9004 123.636 77.1884 124.564 75.7324L125.6 77.1604C124.945 78.9443 124.076 80.642 123.012 82.2164C122.44 83.0676 121.753 83.8361 120.972 84.5004C120.503 84.8956 119.974 85.2129 119.404 85.4404C118.682 85.7285 117.889 85.7886 117.132 85.6124C116.936 85.5647 116.745 85.5005 116.56 85.4204L116.2 85.2644L115.552 84.9684C115.116 84.7764 114.696 84.5444 114.272 84.3324C113.424 83.8801 112.602 83.382 111.808 82.8404C111.008 82.2902 110.24 81.6945 109.508 81.0564C109.128 80.7244 108.788 80.3884 108.44 80.0244C108.268 79.8444 108.092 79.6564 107.924 79.4604L107.676 79.1564C107.584 79.0444 107.516 78.9604 107.392 78.7884L110.4 76.6604Z" fill="#FFB573"/>
<path d="M124.4 75.9524L126.256 71.9844L128.028 75.1604C128.028 75.1604 126.864 77.1604 125.6 77.1604L124.4 75.9524Z" fill="#FFB573"/>
<path d="M128.36 70.3359L130.232 72.7439L128.044 75.1559L126.272 71.9839L128.36 70.3359Z" fill="#FFB573"/>
<path d="M127.708 76.2526H130.656C130.739 76.252 130.819 76.2206 130.88 76.1644C130.942 76.1083 130.98 76.0314 130.988 75.9486L131.6 68.8806C131.604 68.8344 131.599 68.7878 131.584 68.7437C131.57 68.6997 131.546 68.6592 131.515 68.6249C131.483 68.5906 131.445 68.5632 131.403 68.5446C131.36 68.5259 131.314 68.5164 131.268 68.5166H128.324C128.24 68.5173 128.16 68.5493 128.098 68.6063C128.037 68.6633 127.999 68.7411 127.992 68.8246L127.372 75.8886C127.368 75.935 127.374 75.9818 127.389 76.0258C127.404 76.0699 127.428 76.1103 127.46 76.1445C127.491 76.1787 127.53 76.206 127.572 76.2246C127.615 76.2432 127.661 76.2528 127.708 76.2526Z" fill="#0039A6"/>
<path opacity="0.3" d="M127.74 75.5445H130.692L131.244 69.2285H128.292L127.74 75.5445Z" fill="white"/>
<path d="M127.548 74.648L128.072 74.38C128.339 74.2444 128.585 74.072 128.804 73.868L128.9 73.52C128.844 73.4273 128.76 73.3551 128.66 73.3141C128.559 73.273 128.449 73.2652 128.344 73.292L127.908 73.412L125.744 73.576L125.692 74.488L126.324 75.464H126.54C126.778 75.4724 127.011 75.3945 127.197 75.2445C127.382 75.0946 127.507 74.8827 127.548 74.648Z" fill="#FFB573"/>
<path d="M106.624 72.8009C108.124 72.5289 118.704 81.7009 118.704 81.7009L115.568 86.3009C115.568 86.3009 104 78.2449 104.368 76.3009C104.724 74.2569 104.44 73.2009 106.624 72.8009Z" fill="#263238"/>
<path opacity="0.2" d="M107.96 75.7324L107.844 80.5324C109.044 81.4644 113.38 84.7884 113.38 84.7884L107.96 75.7324Z" fill="black"/>
<path d="M99.5718 168.124L103.12 168.472L104.248 160.244L100.696 159.896L99.5718 168.124Z" fill="#FFB573"/>
<path d="M64.6399 119.845L63.7319 123.301L71.4079 126.609L72.9999 123.101L64.6399 119.845Z" fill="#FFB573"/>
<path d="M105.66 169.2C105.965 169.238 106.274 169.17 106.536 169.008C106.593 168.959 106.637 168.897 106.664 168.827C106.692 168.758 106.703 168.683 106.696 168.608C106.696 168.561 106.683 168.515 106.659 168.475C106.635 168.435 106.601 168.402 106.56 168.38C106.132 168.124 104.684 168.812 104.52 168.888C104.504 168.895 104.491 168.907 104.483 168.922C104.474 168.937 104.47 168.955 104.472 168.972C104.474 168.99 104.482 169.006 104.494 169.019C104.507 169.032 104.523 169.041 104.54 169.044C104.908 169.13 105.283 169.182 105.66 169.2ZM106.304 168.484C106.36 168.48 106.416 168.492 106.464 168.52C106.481 168.529 106.495 168.542 106.505 168.558C106.515 168.574 106.52 168.593 106.52 168.612C106.524 168.662 106.517 168.712 106.498 168.759C106.479 168.805 106.45 168.847 106.412 168.88C106.192 169.068 105.612 169.084 104.812 168.932C105.284 168.696 105.793 168.544 106.316 168.48L106.304 168.484Z" fill="#0039A6"/>
<path d="M104.556 169.028H104.588C105.02 168.848 105.888 168.104 105.832 167.696C105.816 167.625 105.777 167.562 105.72 167.517C105.663 167.472 105.592 167.448 105.52 167.448C105.437 167.433 105.351 167.436 105.269 167.456C105.187 167.477 105.11 167.515 105.044 167.568C104.584 167.924 104.476 168.888 104.468 168.924C104.464 168.939 104.464 168.954 104.467 168.969C104.471 168.984 104.478 168.997 104.488 169.008C104.497 169.016 104.508 169.022 104.52 169.026C104.531 169.029 104.544 169.03 104.556 169.028ZM105.44 167.6H105.488C105.644 167.624 105.652 167.684 105.652 167.704C105.688 167.948 105.096 168.54 104.652 168.776C104.694 168.371 104.865 167.99 105.14 167.688C105.229 167.624 105.339 167.597 105.448 167.612L105.44 167.6Z" fill="#0039A6"/>
<path d="M102.944 167.04L99.7441 167.176C99.6752 167.177 99.6089 167.203 99.5579 167.249C99.507 167.296 99.475 167.36 99.4681 167.428L98.7001 171.896C98.6958 171.972 98.7066 172.048 98.7319 172.12C98.7572 172.192 98.7964 172.258 98.8474 172.315C98.8983 172.371 98.96 172.417 99.0288 172.45C99.0976 172.482 99.1721 172.501 99.2481 172.504H99.3121C100.708 172.432 101.38 172.328 103.148 172.268C104.232 172.232 107.548 172.624 109.028 172.288C110.508 171.952 110.228 170.484 109.592 170.496C107.536 170.536 105.164 169.196 103.992 167.628C103.788 167.496 103.168 167.028 102.944 167.04Z" fill="#263238"/>
<path d="M65.364 123.753L66.996 120.981C67.033 120.922 67.0465 120.851 67.0339 120.783C67.0213 120.715 66.9835 120.654 66.928 120.613L63.6 117.545C63.4763 117.457 63.3234 117.422 63.1739 117.446C63.0245 117.47 62.8903 117.551 62.8 117.673L62.764 117.729C62.068 118.929 61.792 119.561 60.884 121.077C60.324 122.009 58.188 124.597 57.684 126.009C57.18 127.421 58.548 128.009 58.884 127.457C59.968 125.705 62.38 124.441 64.34 124.289C64.528 124.217 65.252 123.949 65.364 123.753Z" fill="#263238"/>
<path opacity="0.2" d="M104.248 160.244L103.668 164.488L100.116 164.14L100.692 159.9L104.248 160.244Z" fill="black"/>
<path opacity="0.2" d="M75.3599 123.956L73.7199 127.656L68.7759 125.472L70.0359 121.948L75.3599 123.956Z" fill="black"/>
<path d="M108.892 77.0207C110.92 80.4687 108.44 83.3767 106.368 93.6807L92.9998 93.7167C93.2158 88.1647 93.1918 83.6767 90.8238 72.7527C90.7624 72.4836 90.7625 72.204 90.8243 71.9349C90.886 71.6658 91.0078 71.4141 91.1805 71.1987C91.3532 70.9833 91.5724 70.8097 91.8216 70.6909C92.0709 70.5721 92.3438 70.5112 92.6198 70.5127C93.7238 70.5127 95.1118 70.5487 96.5238 70.6927C98.751 70.8749 100.963 71.2103 103.144 71.6967C104.327 71.982 105.489 72.3455 106.624 72.7847C107.312 73.0167 108.14 74.8887 108.892 77.0207Z" fill="#263238"/>
<path d="M106.864 94.3763C106.864 94.3763 114.372 116.084 114.192 126.524C114.088 132.504 113.636 143.648 111.832 151.484C110.36 157.884 104.36 161.964 104.36 161.964L99.5601 161.68C99.5601 161.68 96.9601 151.92 97.4121 148.036C98.3121 140.304 100.98 134.496 100.656 127.396C100.144 115.772 96.7041 94.1963 96.7041 94.1963L106.864 94.3763Z" fill="#0039A6"/>
<path d="M98.596 162.933L105.376 163.333L105.992 161.297L98.416 160.597L98.596 162.933Z" fill="#263238"/>
<path opacity="0.2" d="M99.4521 138.232C99.4521 138.232 99.4521 138.192 99.4921 138.196C103.752 138.596 106.692 132.464 105.992 124.068L103.732 102.668L99.4521 138.232Z" fill="black"/>
<path d="M103.496 94.1968C103.496 94.1968 109.464 132.369 97.0562 136.665C90.5082 139.145 85.0002 136.457 78.4762 133.569C74.7042 131.901 69.9922 127.385 69.9922 127.385L71.8042 122.453C75.0631 121.571 78.4732 121.4 81.8042 121.949C88.1642 122.933 88.4322 124.749 90.6922 123.377C95.4442 111.633 87.2682 102.349 92.8242 94.1768L103.496 94.1968Z" fill="#0039A6"/>
<path d="M72.1598 121.517L69.7358 127.913L71.5198 129.277L74.3998 121.665L72.1598 121.517Z" fill="#263238"/>
<path d="M71.1598 87.0246C70.5558 87.9166 67.4918 87.3126 67.4918 87.3126L66.8398 83.5166L70.6038 85.0246L71.1598 87.0246Z" fill="#FFB573"/>
<path d="M67.6 83.3203L68.184 87.2643L65.924 87.6003C65.8015 87.6115 65.6793 87.5767 65.581 87.5028C65.4827 87.4289 65.4153 87.3211 65.392 87.2003L64.524 84.4003C64.5092 84.3352 64.5201 84.2668 64.5544 84.2095C64.5886 84.1521 64.6437 84.1102 64.708 84.0923L67.6 83.3203Z" fill="#FFB573"/>
<path d="M66.5882 85.1088L67.8762 85.3368L69.0962 84.4208L68.6242 84.0848C68.3043 83.857 68.0794 83.5196 67.9922 83.1368C67.9015 82.7358 67.8466 82.3275 67.8282 81.9168V81.7808C67.8128 81.6602 67.7583 81.5479 67.6731 81.4612C67.5878 81.3745 67.4765 81.3182 67.3562 81.3008L67.0362 81.5368C66.8362 81.9728 66.9802 82.4808 66.9562 82.8208L66.9042 83.4808L66.3882 83.7048L66.5882 85.1088Z" fill="#FFB573"/>
<path d="M91.468 72L83.9 82.4L70 85.144V87.424C70 87.424 83.064 88.392 86 86.684C88.936 84.976 93.86 74.616 93.86 74.616L91.468 72Z" fill="#FFB573"/>
<path d="M91.3798 52.0004C88.2038 50.9364 84.5198 52.9084 83.0678 55.9244C81.6158 58.9404 82.1238 62.6404 83.7598 65.5604C84.2518 66.4444 84.8398 67.2764 85.2438 68.2004C85.6928 69.1164 85.7909 70.165 85.5198 71.1484C85.1918 72.1044 84.8558 72.7164 83.6718 72.5644C83.6718 72.5644 83.6718 71.9084 84.1238 71.9884C84.1238 71.9884 83.1638 72.5204 82.7878 72.1724C83.2238 72.8444 84.3878 72.6004 84.7598 71.8884C85.3158 70.8284 84.2918 69.3924 83.0918 69.4044C81.8918 69.4164 80.9158 70.6324 80.9558 71.8284C81.0058 72.4266 81.2186 72.9997 81.5712 73.4855C81.9238 73.9713 82.4026 74.3514 82.9558 74.5844C82.6316 74.6379 82.2988 74.5825 82.0093 74.4269C81.7199 74.2713 81.4901 74.0243 81.3558 73.7244C81.8998 75.1484 83.6758 75.7764 85.1758 75.4964C86.6758 75.2164 87.9438 74.2564 89.1198 73.2844C90.7198 71.9724 92.3558 70.3124 92.3198 68.2604C92.2838 66.7284 91.2998 65.4124 90.4718 64.1204C89.6438 62.8284 88.9198 61.2524 89.4478 59.8164C89.8918 58.5964 91.0998 57.8604 92.1638 57.1164C92.9318 56.5844 94.4918 55.3964 94.3078 54.2724C94.1198 53.2004 92.2798 52.3004 91.3798 52.0004Z" fill="#263238"/>
<path d="M84.2239 87.6004L82.1279 82.0524L82.6079 82.0924C82.9963 82.1249 83.3858 82.0449 83.7298 81.8619C84.0739 81.6789 84.3579 81.4006 84.5479 81.0604C86.1479 78.2124 90.2799 70.9844 91.4439 70.6244C93.1039 70.1324 94.8119 71.4604 95.4439 73.4244C95.9199 74.8684 91.0439 81.0604 88.7959 84.5804C86.7999 87.6964 84.2239 87.6004 84.2239 87.6004Z" fill="#263238"/>
<path d="M63.7802 125.576V125.62C63.8096 125.697 63.8581 125.765 63.921 125.818C63.984 125.872 64.0594 125.908 64.1402 125.924C64.1887 125.939 64.2403 125.942 64.29 125.931C64.3398 125.921 64.386 125.898 64.4242 125.864C64.7602 125.556 64.5442 124.264 64.5242 124.136C64.522 124.119 64.5146 124.104 64.5031 124.092C64.4916 124.08 64.4766 124.071 64.4602 124.068C64.4446 124.066 64.4288 124.068 64.4142 124.074C64.3995 124.079 64.3865 124.088 64.3762 124.1C64.1042 124.484 63.6722 125.168 63.7802 125.576ZM64.3962 124.376C64.4682 124.888 64.5002 125.576 64.3122 125.744C64.2926 125.755 64.2706 125.761 64.2482 125.761C64.2258 125.761 64.2037 125.755 64.1842 125.744C64.1304 125.734 64.0801 125.71 64.0381 125.675C63.9961 125.64 63.9637 125.595 63.9442 125.544C63.8722 125.328 64.0242 124.888 64.3962 124.368V124.376Z" fill="#0039A6"/>
<path d="M64.4001 124.305C64.5041 124.737 64.9121 125.473 65.2721 125.561C65.3377 125.574 65.4059 125.564 65.4655 125.534C65.525 125.503 65.5725 125.454 65.6001 125.393C65.6315 125.336 65.6498 125.272 65.654 125.207C65.6581 125.142 65.6479 125.077 65.6241 125.017C65.4601 124.521 64.5161 124.113 64.4761 124.093C64.4632 124.086 64.4488 124.082 64.4341 124.082C64.4195 124.082 64.405 124.086 64.3921 124.093C64.3804 124.102 64.3713 124.115 64.3657 124.129C64.3601 124.143 64.3582 124.158 64.3601 124.173C64.37 124.218 64.3833 124.262 64.4001 124.305ZM65.4881 125.105C65.4963 125.14 65.4973 125.177 65.4911 125.212C65.485 125.248 65.4717 125.282 65.4521 125.313C65.4001 125.409 65.3481 125.409 65.3081 125.401C65.0641 125.353 64.6921 124.749 64.5721 124.329C64.8801 124.485 65.3721 124.777 65.4761 125.081C65.4734 125.088 65.4734 125.097 65.4761 125.105H65.4881Z" fill="#0039A6"/>
<path d="M92.9518 93.0405L92.5798 94.3405C92.5318 94.4405 92.6478 94.5445 92.8158 94.5405H106.616C106.748 94.5405 106.856 94.4725 106.864 94.3925L106.992 93.0925C106.992 93.0045 106.888 92.9245 106.744 92.9285H93.1838C93.1386 92.925 93.0934 92.9335 93.0527 92.9532C93.0119 92.9729 92.9771 93.003 92.9518 93.0405Z" fill="#0039A6"/>
<path opacity="0.5" d="M92.9518 93.0405L92.5798 94.3405C92.5318 94.4405 92.6478 94.5445 92.8158 94.5405H106.616C106.748 94.5405 106.856 94.4725 106.864 94.3925L106.992 93.0925C106.992 93.0045 106.888 92.9245 106.744 92.9285H93.1838C93.1386 92.925 93.0934 92.9335 93.0527 92.9532C93.0119 92.9729 92.9771 93.003 92.9518 93.0405Z" fill="white"/>
<path d="M95.6001 94.66H95.2001C95.1241 94.66 95.0601 94.62 95.0681 94.572L95.2481 92.88C95.2481 92.832 95.3241 92.792 95.4041 92.792H95.8041C95.8801 92.792 95.9401 92.832 95.9361 92.884L95.7561 94.572C95.7321 94.62 95.6601 94.664 95.6001 94.66Z" fill="#0039A6"/>
<path d="M105.548 94.66H105.148C105.076 94.66 105.012 94.62 105.02 94.572L105.2 92.884C105.2 92.832 105.272 92.792 105.348 92.792H105.748C105.824 92.792 105.888 92.832 105.88 92.88L105.7 94.568C105.692 94.62 105.628 94.66 105.548 94.66Z" fill="#0039A6"/>
<path d="M100.984 94.6522H100.584C100.508 94.6522 100.444 94.6122 100.452 94.5642L100.632 92.8762C100.632 92.8242 100.708 92.7842 100.784 92.7842H101.184C101.26 92.7842 101.32 92.8242 101.316 92.8722L101.132 94.5602C101.132 94.6122 101.064 94.6522 100.984 94.6522Z" fill="#0039A6"/>
<path d="M97.1478 63.4121C97.5718 65.5921 97.9878 69.5281 96.5078 70.7121C96.5078 70.7121 97.0998 72.9481 101.056 73.5441C105.424 74.2001 103.132 71.7121 103.132 71.7121C100.752 70.7721 100.812 69.0521 101.22 67.4681L97.1478 63.4121Z" fill="#FFB573"/>
<path d="M96.5238 70.6924C98.6346 70.8262 100.732 71.1177 102.8 71.5644L105.792 72.4564C106.324 73.5284 105.452 75.7324 102.948 76.1524C102.948 76.1524 96.6398 77.0204 94.7798 70.5244L96.5238 70.6924Z" fill="#FFB573"/>
<path opacity="0.2" d="M98.7998 65.0723L101.2 67.4723C101.099 67.8439 101.033 68.2243 101.004 68.6083C100.092 68.3403 98.6278 67.3363 98.5278 66.3763C98.5289 65.9276 98.6215 65.4839 98.7998 65.0723Z" fill="black"/>
<path d="M94.4758 60.6603C95.5478 64.0443 95.9238 65.5003 98.1198 66.8323C101.392 68.8323 105.32 66.7843 105.28 63.1523C105.248 59.8803 103.508 54.8963 99.7918 54.3523C98.975 54.2299 98.1404 54.3185 97.3675 54.6098C96.5946 54.9011 95.9091 55.3853 95.3763 56.0164C94.8434 56.6474 94.481 57.4044 94.3233 58.2152C94.1657 59.0259 94.2182 59.8635 94.4758 60.6483V60.6603Z" fill="#FFB573"/>
<path d="M102.552 60.1328C102.931 60.7268 103.39 61.2652 103.916 61.7328C103.793 61.8662 103.642 61.971 103.474 62.0401C103.307 62.1092 103.126 62.1408 102.944 62.1328L102.552 60.1328Z" fill="#ED893E"/>
<path d="M102.172 63.9409C102.307 63.9259 102.441 63.8992 102.572 63.8608C102.582 63.8585 102.592 63.8541 102.601 63.848C102.609 63.8419 102.616 63.8342 102.622 63.8253C102.627 63.8164 102.631 63.8064 102.633 63.7961C102.635 63.7857 102.634 63.7751 102.632 63.7648C102.626 63.7438 102.613 63.7259 102.594 63.7147C102.575 63.7035 102.553 63.7 102.532 63.7048C102.191 63.799 101.832 63.8118 101.485 63.7424C101.137 63.6729 100.811 63.5231 100.532 63.3048C100.516 63.2885 100.493 63.2793 100.47 63.2793C100.447 63.2793 100.425 63.2885 100.408 63.3048C100.4 63.3127 100.394 63.322 100.389 63.3323C100.385 63.3426 100.383 63.3537 100.383 63.3648C100.383 63.376 100.385 63.3871 100.389 63.3974C100.394 63.4077 100.4 63.417 100.408 63.4248C100.654 63.6225 100.936 63.7699 101.239 63.8584C101.541 63.9469 101.859 63.975 102.172 63.9409Z" fill="#263238"/>
<path d="M93.312 53.9042C92.8712 54.1893 92.5052 54.5761 92.2449 55.032C91.9846 55.4879 91.8375 55.9997 91.816 56.5242C91.7979 56.7248 91.8295 56.9268 91.908 57.1122C91.9474 57.204 92.0103 57.2837 92.0904 57.3434C92.1705 57.4031 92.2648 57.4406 92.364 57.4522C92.668 57.4522 92.892 57.1802 93.06 56.9242L93.836 55.7242C94.1555 55.3344 94.4244 54.9057 94.636 54.4482C94.896 53.6602 93.788 53.6002 93.312 53.9042Z" fill="#0039A6"/>
<path d="M93.6921 54.6999C91.5681 57.1559 90.6161 63.9519 96.8401 65.8479C97.8801 65.0239 96.2001 63.5239 95.4881 61.6279C95.0201 60.3879 97.3921 58.0719 98.3161 57.1199C99.2401 56.1679 100.092 54.7959 101.396 55.0159C101.727 55.1266 102.084 55.1363 102.42 55.0439C103.456 54.5759 102.952 53.9559 102.42 53.5239C101.604 52.9201 100.633 52.562 99.6201 52.4919C98.5277 52.3633 97.4203 52.4964 96.3895 52.8803C95.3588 53.2643 94.4341 53.888 93.6921 54.6999Z" fill="#263238"/>
<path d="M100.6 53.8762C103.1 55.9602 99.8001 56.0122 98.0521 57.3322C96.3761 58.6002 97.5521 60.6762 94.7161 61.6402C92.4001 62.3162 91.8641 61.9082 91.2241 61.4602C92.0173 61.3229 92.7427 60.9272 93.2875 60.3347C93.8323 59.7421 94.1658 58.986 94.2361 58.1842C94.4321 56.6642 97.7441 51.4602 100.6 53.8762Z" fill="#263238"/>
<path d="M94.1 63.5041C94.4917 64.0683 95.0893 64.4561 95.764 64.5841C96.66 64.7401 97.004 63.9201 96.696 63.1201C96.404 62.4001 95.592 61.4521 94.724 61.6561C94.4256 61.7333 94.17 61.9257 94.0132 62.1912C93.8565 62.4567 93.8115 62.7734 93.888 63.0721C93.9288 63.2289 94.0009 63.3759 94.1 63.5041Z" fill="#FFB573"/>
<path d="M100.172 54.0888C100.656 55.3208 102.052 55.1568 103.084 56.4448C103.72 57.2448 104.968 54.7768 103.268 53.8048C101.568 52.8328 99.4122 52.1608 100.172 54.0888Z" fill="#263238"/>
<path d="M98.7002 59.2883C98.7358 59.2922 98.7716 59.2845 98.8026 59.2665C98.8335 59.2486 98.8579 59.2212 98.8722 59.1883C99.2002 58.4603 100.184 58.2763 100.192 58.2763C100.236 58.2667 100.275 58.2406 100.3 58.2034C100.325 58.1662 100.335 58.1207 100.328 58.0763C100.319 58.033 100.294 57.9948 100.257 57.9701C100.221 57.9453 100.176 57.9361 100.132 57.9443C100.08 57.9443 98.9602 58.1803 98.5602 59.0603C98.5424 59.1013 98.5412 59.1475 98.5569 59.1893C98.5725 59.2311 98.6038 59.2652 98.6442 59.2843H98.7002V59.2883Z" fill="#263238"/>
<path d="M103.9 57.816C103.929 57.8181 103.959 57.8122 103.985 57.7988C104.011 57.7854 104.033 57.765 104.048 57.74C104.061 57.722 104.07 57.7017 104.074 57.6801C104.079 57.6586 104.079 57.6363 104.075 57.6147C104.071 57.593 104.063 57.5724 104.051 57.5541C104.038 57.5358 104.023 57.5201 104.004 57.508C103.783 57.3545 103.527 57.2566 103.26 57.2225C102.993 57.1884 102.721 57.2191 102.468 57.312C102.447 57.3202 102.428 57.3327 102.412 57.3487C102.396 57.3647 102.383 57.3838 102.375 57.4048C102.367 57.4258 102.363 57.4483 102.364 57.4709C102.365 57.4935 102.37 57.5157 102.38 57.536C102.398 57.5768 102.431 57.6089 102.472 57.6254C102.513 57.6419 102.559 57.6414 102.6 57.624C102.799 57.5545 103.012 57.5335 103.22 57.5627C103.429 57.5919 103.628 57.6705 103.8 57.792C103.831 57.8071 103.865 57.8153 103.9 57.816Z" fill="#263238"/>
<path d="M120.344 79.7129L118 81.0449L115.564 86.2849C115.564 86.2849 117.916 87.7809 119.772 86.5689C121.628 85.3569 120.344 79.7129 120.344 79.7129Z" fill="#0039A6"/>
<path opacity="0.5" d="M120.344 79.7129L118 81.0449L115.564 86.2849C115.564 86.2849 117.916 87.7809 119.772 86.5689C121.628 85.3569 120.344 79.7129 120.344 79.7129Z" fill="white"/>
<path d="M79.3558 81.332L82.1278 82.132L84.7558 87.568C84.7558 87.568 82.6438 89.524 80.3558 87.656C78.6438 86.24 79.3558 81.332 79.3558 81.332Z" fill="#0039A6"/>
<g opacity="0.5">
<path d="M79.3558 81.332L82.1278 82.132L84.7558 87.568C84.7558 87.568 82.6438 89.524 80.3558 87.656C78.6438 86.24 79.3558 81.332 79.3558 81.332Z" fill="white"/>
</g>
<path d="M103.74 59.1729C103.932 59.1369 104.14 59.3529 104.184 59.6489C104.228 59.9449 104.12 60.2169 103.928 60.2489C103.736 60.2809 103.528 60.0689 103.484 59.7729C103.44 59.4769 103.548 59.2009 103.74 59.1729Z" fill="#263238"/>
<path d="M104.332 58.8809L103.656 59.2129C104.064 59.5009 104.332 58.8809 104.332 58.8809Z" fill="#263238"/>
<path d="M100.4 59.8604C100.592 59.8244 100.8 60.0404 100.844 60.3364C100.888 60.6324 100.78 60.9044 100.588 60.9364C100.396 60.9684 100.188 60.7564 100.144 60.4604C100.1 60.1644 100.2 59.8964 100.4 59.8604Z" fill="#263238"/>
<path d="M100.984 59.5684L100.308 59.9004C100.716 60.1884 100.984 59.5684 100.984 59.5684Z" fill="#263238"/>
<path d="M83.4642 75.1645C83.0876 75.1667 82.7141 75.0961 82.3642 74.9565C81.1242 74.4485 80.5482 73.1605 80.7642 71.4165C80.7712 71.364 80.7987 71.3165 80.8407 71.2842C80.8827 71.252 80.9357 71.2377 80.9882 71.2445C81.0144 71.2475 81.0398 71.2557 81.0627 71.2686C81.0857 71.2816 81.1058 71.299 81.1219 71.3199C81.1379 71.3409 81.1496 71.3648 81.1562 71.3903C81.1628 71.4159 81.1642 71.4425 81.1602 71.4685C80.9522 73.0165 81.4402 74.1525 82.5002 74.5845C83.1154 74.7951 83.7815 74.8056 84.403 74.6145C85.0246 74.4233 85.5697 74.0404 85.9602 73.5205C86.9642 72.1845 86.6362 70.2885 85.0722 68.3205C80.9762 63.1805 81.2482 60.4485 81.8282 58.2885C82.6682 55.1525 85.1282 51.5605 92.0882 52.2525C92.1413 52.2578 92.19 52.284 92.2238 52.3252C92.2576 52.3665 92.2735 52.4195 92.2682 52.4725C92.2629 52.5256 92.2368 52.5743 92.1955 52.6081C92.1543 52.6418 92.1013 52.6578 92.0482 52.6525C85.3722 51.9885 83.0122 55.4125 82.2122 58.3965C81.6362 60.5565 81.4122 63.0805 85.3842 68.0765C87.7842 71.0885 86.8122 73.0605 86.2802 73.7645C85.9474 74.1957 85.521 74.5458 85.0332 74.7883C84.5454 75.0308 84.009 75.1594 83.4642 75.1645Z" fill="#263238"/>
</svg>
