<svg width="24" height="20" viewBox="0 0 24 20" fill="none" xmlns="http://www.w3.org/2000/svg">
<path d="M16.7175 16.7175C16.9128 16.5223 16.9128 16.2057 16.7175 16.0104C16.5223 15.8151 16.2057 15.8151 16.0104 16.0104L16.7175 16.7175ZM16.0104 3.98959C16.2057 4.18485 16.5223 4.18485 16.7175 3.98959C16.9128 3.79433 16.9128 3.47775 16.7175 3.28249L16.0104 3.98959ZM20.3737 6.66806C20.1903 6.46167 19.8742 6.44308 19.6678 6.62654C19.4614 6.81 19.4429 7.12603 19.6263 7.33243L20.3737 6.66806ZM22.6667 10.0002L23.0404 10.3324C23.2088 10.143 23.2088 9.8575 23.0404 9.66806L22.6667 10.0002ZM19.6263 12.6681C19.4429 12.8745 19.4614 13.1905 19.6678 13.3739C19.8742 13.5574 20.1903 13.5388 20.3737 13.3324L19.6263 12.6681ZM22.5 10.5002C22.7762 10.5002 23 10.2764 23 10.0002C23 9.7241 22.7762 9.50024 22.5 9.50024V10.5002ZM10 9.50024C9.72387 9.50024 9.50002 9.7241 9.50002 10.0002C9.50002 10.2764 9.72387 10.5002 10 10.5002V9.50024ZM3.28249 3.28249C-0.427495 6.99247 -0.427495 13.0075 3.28249 16.7175L3.98959 16.0104C0.670136 12.691 0.670136 7.30905 3.98959 3.98959L3.28249 3.28249ZM3.28249 16.7175C6.99247 20.4275 13.0075 20.4275 16.7175 16.7175L16.0104 16.0104C12.691 19.3299 7.30905 19.3299 3.98959 16.0104L3.28249 16.7175ZM16.7175 3.28249C13.0075 -0.427495 6.99247 -0.427495 3.28249 3.28249L3.98959 3.98959C7.30905 0.670136 12.691 0.670136 16.0104 3.98959L16.7175 3.28249ZM19.6263 7.33243L22.293 10.3324L23.0404 9.66806L20.3737 6.66806L19.6263 7.33243ZM22.293 9.66806L19.6263 12.6681L20.3737 13.3324L23.0404 10.3324L22.293 9.66806ZM22.5 9.50024H10V10.5002H22.5V9.50024Z" fill="#292B2F"/>
</svg>
