<svg width="22" height="25" viewBox="0 0 22 25" fill="none" xmlns="http://www.w3.org/2000/svg">
<path d="M6 10.707V6.70703C6 5.38095 6.52678 4.10918 7.46447 3.1715C8.40215 2.23382 9.67392 1.70703 11 1.70703C12.3261 1.70703 13.5979 2.23382 14.5355 3.1715C15.4732 4.10918 16 5.38095 16 6.70703V10.707M1 12.707C1 11.0502 2.34315 9.70703 4 9.70703H18C19.6569 9.70703 21 11.0502 21 12.707V20.707C21 22.3639 19.6569 23.707 18 23.707H4C2.34315 23.707 1 22.3639 1 20.707V12.707Z" stroke="#6E7A91" stroke-width="2"/>
</svg>
