<svg width="197" height="157" viewBox="0 0 197 157" fill="none" xmlns="http://www.w3.org/2000/svg">
<g clip-path="url(#clip0_11926_51442)">
<g opacity="0.17">
<path opacity="0.038" d="M103.069 149.528C121.369 149.528 136.205 143.013 136.205 134.976C136.205 126.939 121.369 120.424 103.069 120.424C84.7681 120.424 69.9326 126.939 69.9326 134.976C69.9326 143.013 84.7681 149.528 103.069 149.528Z" fill="#4A0101"/>
<path opacity="0.077" d="M103.069 149.167C120.914 149.167 135.381 142.813 135.381 134.975C135.381 127.137 120.914 120.783 103.069 120.783C85.2234 120.783 70.7568 127.137 70.7568 134.975C70.7568 142.813 85.2234 149.167 103.069 149.167Z" fill="#480202"/>
<path opacity="0.115" d="M103.068 148.808C120.463 148.808 134.564 142.615 134.564 134.976C134.564 127.336 120.463 121.144 103.068 121.144C85.6735 121.144 71.5723 127.336 71.5723 134.976C71.5723 142.615 85.6735 148.808 103.068 148.808Z" fill="#460303"/>
<path opacity="0.154" d="M103.068 148.448C120.008 148.448 133.74 142.416 133.74 134.976C133.74 127.536 120.008 121.504 103.068 121.504C86.1288 121.504 72.3965 127.536 72.3965 134.976C72.3965 142.416 86.1288 148.448 103.068 148.448Z" fill="#440404"/>
<path opacity="0.192" d="M103.069 148.087C119.553 148.087 132.917 142.217 132.917 134.975C132.917 127.734 119.553 121.863 103.069 121.863C86.5841 121.863 73.2207 127.734 73.2207 134.975C73.2207 142.217 86.5841 148.087 103.069 148.087Z" fill="#420505"/>
<path opacity="0.231" d="M103.068 147.728C119.102 147.728 132.1 142.018 132.1 134.976C132.1 127.933 119.102 122.224 103.068 122.224C87.0342 122.224 74.0361 127.933 74.0361 134.976C74.0361 142.018 87.0342 147.728 103.068 147.728Z" fill="#400606"/>
<path opacity="0.269" d="M103.068 147.368C118.647 147.368 131.276 141.82 131.276 134.976C131.276 128.132 118.647 122.584 103.068 122.584C87.4895 122.584 74.8604 128.132 74.8604 134.976C74.8604 141.82 87.4895 147.368 103.068 147.368Z" fill="#3E0606"/>
<path opacity="0.308" d="M103.069 147.007C118.192 147.007 130.453 141.62 130.453 134.975C130.453 128.33 118.192 122.943 103.069 122.943C87.9448 122.943 75.6846 128.33 75.6846 134.975C75.6846 141.62 87.9448 147.007 103.069 147.007Z" fill="#3C0707"/>
<path opacity="0.346" d="M103.069 146.64C117.737 146.64 129.629 141.417 129.629 134.976C129.629 128.534 117.737 123.312 103.069 123.312C88.4001 123.312 76.5088 128.534 76.5088 134.976C76.5088 141.417 88.4001 146.64 103.069 146.64Z" fill="#3A0808"/>
<path opacity="0.385" d="M103.068 146.28C117.286 146.28 128.812 141.219 128.812 134.976C128.812 128.733 117.286 123.672 103.068 123.672C88.8502 123.672 77.3242 128.733 77.3242 134.976C77.3242 141.219 88.8502 146.28 103.068 146.28Z" fill="#380909"/>
<path opacity="0.423" d="M103.068 145.919C116.831 145.919 127.988 141.019 127.988 134.975C127.988 128.931 116.831 124.031 103.068 124.031C89.3055 124.031 78.1484 128.931 78.1484 134.975C78.1484 141.019 89.3055 145.919 103.068 145.919Z" fill="#360A0A"/>
<path opacity="0.462" d="M103.069 145.56C116.377 145.56 127.165 140.821 127.165 134.976C127.165 129.13 116.377 124.392 103.069 124.392C89.7608 124.392 78.9727 129.13 78.9727 134.976C78.9727 140.821 89.7608 145.56 103.069 145.56Z" fill="#340B0B"/>
<path opacity="0.5" d="M103.069 145.2C115.922 145.2 126.341 140.623 126.341 134.976C126.341 129.329 115.922 124.752 103.069 124.752C90.2161 124.752 79.7969 129.329 79.7969 134.976C79.7969 140.623 90.2161 145.2 103.069 145.2Z" fill="#330C0C"/>
<path opacity="0.538" d="M103.068 144.839C115.47 144.839 125.524 140.423 125.524 134.975C125.524 129.528 115.47 125.111 103.068 125.111C90.6662 125.111 80.6123 129.528 80.6123 134.975C80.6123 140.423 90.6662 144.839 103.068 144.839Z" fill="#310D0D"/>
<path opacity="0.577" d="M103.069 144.48C115.016 144.48 124.701 140.225 124.701 134.976C124.701 129.727 115.016 125.472 103.069 125.472C91.1215 125.472 81.4365 129.727 81.4365 134.976C81.4365 140.225 91.1215 144.48 103.069 144.48Z" fill="#2F0E0E"/>
<path opacity="0.615" d="M103.069 144.12C114.561 144.12 123.877 140.026 123.877 134.976C123.877 129.926 114.561 125.832 103.069 125.832C91.5768 125.832 82.2607 129.926 82.2607 134.976C82.2607 140.026 91.5768 144.12 103.069 144.12Z" fill="#2D0F0F"/>
<path opacity="0.654" d="M103.068 143.751C114.105 143.751 123.052 139.822 123.052 134.975C123.052 130.128 114.105 126.199 103.068 126.199C92.0311 126.199 83.084 130.128 83.084 134.975C83.084 139.822 92.0311 143.751 103.068 143.751Z" fill="#2B1010"/>
<path opacity="0.692" d="M103.068 143.392C113.655 143.392 122.236 139.624 122.236 134.976C122.236 130.328 113.655 126.56 103.068 126.56C92.4822 126.56 83.9004 130.328 83.9004 134.976C83.9004 139.624 92.4822 143.392 103.068 143.392Z" fill="#291111"/>
<path opacity="0.731" d="M103.069 143.032C113.2 143.032 121.413 139.425 121.413 134.976C121.413 130.527 113.2 126.92 103.069 126.92C92.9375 126.92 84.7246 130.527 84.7246 134.976C84.7246 139.425 92.9375 143.032 103.069 143.032Z" fill="#271212"/>
<path opacity="0.769" d="M103.069 142.671C112.745 142.671 120.589 139.226 120.589 134.975C120.589 130.725 112.745 127.279 103.069 127.279C93.3928 127.279 85.5488 130.725 85.5488 134.975C85.5488 139.226 93.3928 142.671 103.069 142.671Z" fill="#251212"/>
<path opacity="0.808" d="M103.068 142.312C112.289 142.312 119.764 139.027 119.764 134.976C119.764 130.924 112.289 127.64 103.068 127.64C93.8471 127.64 86.3721 130.924 86.3721 134.976C86.3721 139.027 93.8471 142.312 103.068 142.312Z" fill="#231313"/>
<path opacity="0.846" d="M103.068 141.952C111.839 141.952 118.948 138.829 118.948 134.976C118.948 131.123 111.839 128 103.068 128C94.2982 128 87.1885 131.123 87.1885 134.976C87.1885 138.829 94.2982 141.952 103.068 141.952Z" fill="#211414"/>
<path opacity="0.885" d="M103.069 141.591C111.384 141.591 118.125 138.629 118.125 134.975C118.125 131.321 111.384 128.359 103.069 128.359C94.7535 128.359 88.0127 131.321 88.0127 134.975C88.0127 138.629 94.7535 141.591 103.069 141.591Z" fill="#1F1515"/>
<path opacity="0.923" d="M103.068 141.232C110.928 141.232 117.3 138.431 117.3 134.976C117.3 131.521 110.928 128.72 103.068 128.72C95.2078 128.72 88.8359 131.521 88.8359 134.976C88.8359 138.431 95.2078 141.232 103.068 141.232Z" fill="#1D1616"/>
<path opacity="0.962" d="M103.068 140.864C110.478 140.864 116.484 138.228 116.484 134.976C116.484 131.724 110.478 129.088 103.068 129.088C95.6589 129.088 89.6523 131.724 89.6523 134.976C89.6523 138.228 95.6589 140.864 103.068 140.864Z" fill="#1B1717"/>
<path d="M103.069 140.503C110.023 140.503 115.661 138.028 115.661 134.975C115.661 131.922 110.023 129.447 103.069 129.447C96.1142 129.447 90.4766 131.922 90.4766 134.975C90.4766 138.028 96.1142 140.503 103.069 140.503Z" fill="#191818"/>
</g>
<g opacity="0.17">
<path opacity="0.038" d="M107.029 143.816C125.329 143.816 140.165 137.301 140.165 129.264C140.165 121.227 125.329 114.712 107.029 114.712C88.7281 114.712 73.8926 121.227 73.8926 129.264C73.8926 137.301 88.7281 143.816 107.029 143.816Z" fill="#4A0101"/>
<path opacity="0.077" d="M107.029 143.455C124.874 143.455 139.341 137.101 139.341 129.263C139.341 121.425 124.874 115.071 107.029 115.071C89.1834 115.071 74.7168 121.425 74.7168 129.263C74.7168 137.101 89.1834 143.455 107.029 143.455Z" fill="#480202"/>
<path opacity="0.115" d="M107.028 143.096C124.423 143.096 138.524 136.903 138.524 129.264C138.524 121.624 124.423 115.432 107.028 115.432C89.6335 115.432 75.5322 121.624 75.5322 129.264C75.5322 136.903 89.6335 143.096 107.028 143.096Z" fill="#460303"/>
<path opacity="0.154" d="M107.028 142.736C123.968 142.736 137.7 136.704 137.7 129.264C137.7 121.824 123.968 115.792 107.028 115.792C90.0888 115.792 76.3564 121.824 76.3564 129.264C76.3564 136.704 90.0888 142.736 107.028 142.736Z" fill="#440404"/>
<path opacity="0.192" d="M107.029 142.375C123.513 142.375 136.877 136.505 136.877 129.263C136.877 122.022 123.513 116.151 107.029 116.151C90.5441 116.151 77.1807 122.022 77.1807 129.263C77.1807 136.505 90.5441 142.375 107.029 142.375Z" fill="#420505"/>
<path opacity="0.231" d="M107.028 142.016C123.062 142.016 136.06 136.306 136.06 129.264C136.06 122.221 123.062 116.512 107.028 116.512C90.9942 116.512 77.9961 122.221 77.9961 129.264C77.9961 136.306 90.9942 142.016 107.028 142.016Z" fill="#400606"/>
<path opacity="0.269" d="M107.028 141.656C122.607 141.656 135.236 136.108 135.236 129.264C135.236 122.42 122.607 116.872 107.028 116.872C91.4495 116.872 78.8203 122.42 78.8203 129.264C78.8203 136.108 91.4495 141.656 107.028 141.656Z" fill="#3E0606"/>
<path opacity="0.308" d="M107.029 141.295C122.152 141.295 134.413 135.909 134.413 129.263C134.413 122.618 122.152 117.231 107.029 117.231C91.9048 117.231 79.6445 122.618 79.6445 129.263C79.6445 135.909 91.9048 141.295 107.029 141.295Z" fill="#3C0707"/>
<path opacity="0.346" d="M107.029 140.928C121.697 140.928 133.589 135.705 133.589 129.264C133.589 122.822 121.697 117.6 107.029 117.6C92.3601 117.6 80.4688 122.822 80.4688 129.264C80.4688 135.705 92.3601 140.928 107.029 140.928Z" fill="#3A0808"/>
<path opacity="0.385" d="M107.028 140.568C121.246 140.568 132.772 135.507 132.772 129.264C132.772 123.021 121.246 117.96 107.028 117.96C92.8102 117.96 81.2842 123.021 81.2842 129.264C81.2842 135.507 92.8102 140.568 107.028 140.568Z" fill="#380909"/>
<path opacity="0.423" d="M107.028 140.207C120.791 140.207 131.948 135.308 131.948 129.263C131.948 123.219 120.791 118.319 107.028 118.319C93.2655 118.319 82.1084 123.219 82.1084 129.263C82.1084 135.308 93.2655 140.207 107.028 140.207Z" fill="#360A0A"/>
<path opacity="0.462" d="M107.029 139.848C120.336 139.848 131.125 135.109 131.125 129.264C131.125 123.418 120.336 118.68 107.029 118.68C93.7208 118.68 82.9326 123.418 82.9326 129.264C82.9326 135.109 93.7208 139.848 107.029 139.848Z" fill="#340B0B"/>
<path opacity="0.5" d="M107.029 139.488C119.882 139.488 130.301 134.911 130.301 129.264C130.301 123.617 119.882 119.04 107.029 119.04C94.1761 119.04 83.7568 123.617 83.7568 129.264C83.7568 134.911 94.1761 139.488 107.029 139.488Z" fill="#330C0C"/>
<path opacity="0.538" d="M107.028 139.127C119.43 139.127 129.484 134.711 129.484 129.263C129.484 123.816 119.43 119.399 107.028 119.399C94.6262 119.399 84.5723 123.816 84.5723 129.263C84.5723 134.711 94.6262 139.127 107.028 139.127Z" fill="#310D0D"/>
<path opacity="0.577" d="M107.028 138.768C118.976 138.768 128.66 134.513 128.66 129.264C128.66 124.015 118.976 119.76 107.028 119.76C95.0815 119.76 85.3965 124.015 85.3965 129.264C85.3965 134.513 95.0815 138.768 107.028 138.768Z" fill="#2F0E0E"/>
<path opacity="0.615" d="M107.029 138.408C118.521 138.408 127.837 134.314 127.837 129.264C127.837 124.214 118.521 120.12 107.029 120.12C95.5368 120.12 86.2207 124.214 86.2207 129.264C86.2207 134.314 95.5368 138.408 107.029 138.408Z" fill="#2D0F0F"/>
<path opacity="0.654" d="M107.028 138.039C118.065 138.039 127.012 134.11 127.012 129.263C127.012 124.416 118.065 120.487 107.028 120.487C95.9911 120.487 87.0439 124.416 87.0439 129.263C87.0439 134.11 95.9911 138.039 107.028 138.039Z" fill="#2B1010"/>
<path opacity="0.692" d="M107.028 137.68C117.615 137.68 126.196 133.912 126.196 129.264C126.196 124.616 117.615 120.848 107.028 120.848C96.4422 120.848 87.8604 124.616 87.8604 129.264C87.8604 133.912 96.4422 137.68 107.028 137.68Z" fill="#291111"/>
<path opacity="0.731" d="M107.029 137.32C117.16 137.32 125.373 133.713 125.373 129.264C125.373 124.815 117.16 121.208 107.029 121.208C96.8975 121.208 88.6846 124.815 88.6846 129.264C88.6846 133.713 96.8975 137.32 107.029 137.32Z" fill="#271212"/>
<path opacity="0.769" d="M107.029 136.959C116.705 136.959 124.549 133.514 124.549 129.263C124.549 125.013 116.705 121.567 107.029 121.567C97.3528 121.567 89.5088 125.013 89.5088 129.263C89.5088 133.514 97.3528 136.959 107.029 136.959Z" fill="#251212"/>
<path opacity="0.808" d="M107.028 136.6C116.249 136.6 123.724 133.315 123.724 129.264C123.724 125.212 116.249 121.928 107.028 121.928C97.8071 121.928 90.332 125.212 90.332 129.264C90.332 133.315 97.8071 136.6 107.028 136.6Z" fill="#231313"/>
<path opacity="0.846" d="M107.028 136.24C115.799 136.24 122.908 133.117 122.908 129.264C122.908 125.411 115.799 122.288 107.028 122.288C98.2582 122.288 91.1484 125.411 91.1484 129.264C91.1484 133.117 98.2582 136.24 107.028 136.24Z" fill="#211414"/>
<path opacity="0.885" d="M107.029 135.879C115.344 135.879 122.085 132.917 122.085 129.263C122.085 125.61 115.344 122.647 107.029 122.647C98.7135 122.647 91.9727 125.61 91.9727 129.263C91.9727 132.917 98.7135 135.879 107.029 135.879Z" fill="#1F1515"/>
<path opacity="0.923" d="M107.028 135.52C114.888 135.52 121.26 132.719 121.26 129.264C121.26 125.809 114.888 123.008 107.028 123.008C99.1678 123.008 92.7959 125.809 92.7959 129.264C92.7959 132.719 99.1678 135.52 107.028 135.52Z" fill="#1D1616"/>
<path opacity="0.962" d="M107.028 135.152C114.438 135.152 120.444 132.516 120.444 129.264C120.444 126.012 114.438 123.376 107.028 123.376C99.6188 123.376 93.6123 126.012 93.6123 129.264C93.6123 132.516 99.6188 135.152 107.028 135.152Z" fill="#1B1717"/>
<path d="M107.029 134.791C113.983 134.791 119.621 132.316 119.621 129.263C119.621 126.21 113.983 123.735 107.029 123.735C100.074 123.735 94.4365 126.21 94.4365 129.263C94.4365 132.316 100.074 134.791 107.029 134.791Z" fill="#191818"/>
</g>
<g opacity="0.17">
<path opacity="0.038" d="M79.8606 130.384C98.1611 130.384 112.997 123.869 112.997 115.832C112.997 107.795 98.1611 101.28 79.8606 101.28C61.5601 101.28 46.7246 107.795 46.7246 115.832C46.7246 123.869 61.5601 130.384 79.8606 130.384Z" fill="#4A0101"/>
<path opacity="0.077" d="M79.8608 130.024C97.7063 130.024 112.173 123.67 112.173 115.832C112.173 107.994 97.7063 101.64 79.8608 101.64C62.0154 101.64 47.5488 107.994 47.5488 115.832C47.5488 123.67 62.0154 130.024 79.8608 130.024Z" fill="#480202"/>
<path opacity="0.115" d="M79.8603 129.664C97.255 129.664 111.356 123.471 111.356 115.832C111.356 108.193 97.255 102 79.8603 102C62.4655 102 48.3643 108.193 48.3643 115.832C48.3643 123.471 62.4655 129.664 79.8603 129.664Z" fill="#460303"/>
<path opacity="0.154" d="M79.8605 129.304C96.8002 129.304 110.532 123.273 110.532 115.832C110.532 108.392 96.8002 102.36 79.8605 102.36C62.9208 102.36 49.1885 108.392 49.1885 115.832C49.1885 123.273 62.9208 129.304 79.8605 129.304Z" fill="#440404"/>
<path opacity="0.192" d="M79.8607 128.944C96.3453 128.944 109.709 123.073 109.709 115.832C109.709 108.59 96.3453 102.72 79.8607 102.72C63.3761 102.72 50.0127 108.59 50.0127 115.832C50.0127 123.073 63.3761 128.944 79.8607 128.944Z" fill="#420505"/>
<path opacity="0.231" d="M79.8601 128.584C95.8941 128.584 108.892 122.875 108.892 115.832C108.892 108.789 95.8941 103.08 79.8601 103.08C63.8262 103.08 50.8281 108.789 50.8281 115.832C50.8281 122.875 63.8262 128.584 79.8601 128.584Z" fill="#400606"/>
<path opacity="0.269" d="M79.8603 128.224C95.4392 128.224 108.068 122.676 108.068 115.832C108.068 108.989 95.4392 103.44 79.8603 103.44C64.2815 103.44 51.6523 108.989 51.6523 115.832C51.6523 122.676 64.2815 128.224 79.8603 128.224Z" fill="#3E0606"/>
<path opacity="0.308" d="M79.8606 127.864C94.9843 127.864 107.245 122.477 107.245 115.832C107.245 109.187 94.9843 103.8 79.8606 103.8C64.7368 103.8 52.4766 109.187 52.4766 115.832C52.4766 122.477 64.7368 127.864 79.8606 127.864Z" fill="#3C0707"/>
<path opacity="0.346" d="M79.8608 127.496C94.5295 127.496 106.421 122.274 106.421 115.832C106.421 109.39 94.5295 104.168 79.8608 104.168C65.1921 104.168 53.3008 109.39 53.3008 115.832C53.3008 122.274 65.1921 127.496 79.8608 127.496Z" fill="#3A0808"/>
<path opacity="0.385" d="M79.8602 127.136C94.0782 127.136 105.604 122.075 105.604 115.832C105.604 109.589 94.0782 104.528 79.8602 104.528C65.6422 104.528 54.1162 109.589 54.1162 115.832C54.1162 122.075 65.6422 127.136 79.8602 127.136Z" fill="#380909"/>
<path opacity="0.423" d="M79.8604 126.776C93.6234 126.776 104.78 121.876 104.78 115.832C104.78 109.787 93.6234 104.888 79.8604 104.888C66.0975 104.888 54.9404 109.787 54.9404 115.832C54.9404 121.876 66.0975 126.776 79.8604 126.776Z" fill="#360A0A"/>
<path opacity="0.462" d="M79.8606 126.416C93.1685 126.416 103.957 121.677 103.957 115.832C103.957 109.987 93.1685 105.248 79.8606 105.248C66.5528 105.248 55.7646 109.987 55.7646 115.832C55.7646 121.677 66.5528 126.416 79.8606 126.416Z" fill="#340B0B"/>
<path opacity="0.5" d="M79.8609 126.056C92.7136 126.056 103.133 121.479 103.133 115.832C103.133 110.186 92.7136 105.608 79.8609 105.608C67.0081 105.608 56.5889 110.186 56.5889 115.832C56.5889 121.479 67.0081 126.056 79.8609 126.056Z" fill="#330C0C"/>
<path opacity="0.538" d="M79.8603 125.696C92.2624 125.696 102.316 121.28 102.316 115.832C102.316 110.384 92.2624 105.968 79.8603 105.968C67.4582 105.968 57.4043 110.384 57.4043 115.832C57.4043 121.28 67.4582 125.696 79.8603 125.696Z" fill="#310D0D"/>
<path opacity="0.577" d="M79.8605 125.336C91.8075 125.336 101.493 121.081 101.493 115.832C101.493 110.583 91.8075 106.328 79.8605 106.328C67.9135 106.328 58.2285 110.583 58.2285 115.832C58.2285 121.081 67.9135 125.336 79.8605 125.336Z" fill="#2F0E0E"/>
<path opacity="0.615" d="M79.8607 124.976C91.3527 124.976 100.669 120.883 100.669 115.832C100.669 110.782 91.3527 106.688 79.8607 106.688C68.3688 106.688 59.0527 110.782 59.0527 115.832C59.0527 120.883 68.3688 124.976 79.8607 124.976Z" fill="#2D0F0F"/>
<path opacity="0.654" d="M79.86 124.608C90.8968 124.608 99.844 120.679 99.844 115.832C99.844 110.985 90.8968 107.056 79.86 107.056C68.8231 107.056 59.876 110.985 59.876 115.832C59.876 120.679 68.8231 124.608 79.86 124.608Z" fill="#2B1010"/>
<path opacity="0.692" d="M79.8604 124.248C90.4466 124.248 99.0284 120.48 99.0284 115.832C99.0284 111.184 90.4466 107.416 79.8604 107.416C69.2742 107.416 60.6924 111.184 60.6924 115.832C60.6924 120.48 69.2742 124.248 79.8604 124.248Z" fill="#291111"/>
<path opacity="0.731" d="M79.8606 123.888C89.9917 123.888 98.2046 120.282 98.2046 115.832C98.2046 111.383 89.9917 107.776 79.8606 107.776C69.7295 107.776 61.5166 111.383 61.5166 115.832C61.5166 120.282 69.7295 123.888 79.8606 123.888Z" fill="#271212"/>
<path opacity="0.769" d="M79.8608 123.528C89.5369 123.528 97.3808 120.082 97.3808 115.832C97.3808 111.581 89.5369 108.136 79.8608 108.136C70.1848 108.136 62.3408 111.581 62.3408 115.832C62.3408 120.082 70.1848 123.528 79.8608 123.528Z" fill="#251212"/>
<path opacity="0.808" d="M79.8601 123.168C89.081 123.168 96.5561 119.884 96.5561 115.832C96.5561 111.781 89.081 108.496 79.8601 108.496C70.6391 108.496 63.1641 111.781 63.1641 115.832C63.1641 119.884 70.6391 123.168 79.8601 123.168Z" fill="#231313"/>
<path opacity="0.846" d="M79.8605 122.808C88.6308 122.808 95.7405 119.685 95.7405 115.832C95.7405 111.98 88.6308 108.856 79.8605 108.856C71.0902 108.856 63.9805 111.98 63.9805 115.832C63.9805 119.685 71.0902 122.808 79.8605 122.808Z" fill="#211414"/>
<path opacity="0.885" d="M79.8607 122.448C88.1759 122.448 94.9167 119.486 94.9167 115.832C94.9167 112.178 88.1759 109.216 79.8607 109.216C71.5455 109.216 64.8047 112.178 64.8047 115.832C64.8047 119.486 71.5455 122.448 79.8607 122.448Z" fill="#1F1515"/>
<path opacity="0.923" d="M79.8599 122.088C87.72 122.088 94.0919 119.287 94.0919 115.832C94.0919 112.377 87.72 109.576 79.8599 109.576C71.9998 109.576 65.6279 112.377 65.6279 115.832C65.6279 119.287 71.9998 122.088 79.8599 122.088Z" fill="#1D1616"/>
<path opacity="0.962" d="M79.8603 121.72C87.2698 121.72 93.2763 119.084 93.2763 115.832C93.2763 112.58 87.2698 109.944 79.8603 109.944C72.4509 109.944 66.4443 112.58 66.4443 115.832C66.4443 119.084 72.4509 121.72 79.8603 121.72Z" fill="#1B1717"/>
<path d="M79.8606 121.36C86.8149 121.36 92.4526 118.885 92.4526 115.832C92.4526 112.779 86.8149 110.304 79.8606 110.304C72.9062 110.304 67.2686 112.779 67.2686 115.832C67.2686 118.885 72.9062 121.36 79.8606 121.36Z" fill="#191818"/>
</g>
<g opacity="0.17">
<path opacity="0.038" d="M146.188 124.081C164.488 124.081 179.324 117.565 179.324 109.529C179.324 101.492 164.488 94.9766 146.188 94.9766C127.887 94.9766 113.052 101.492 113.052 109.529C113.052 117.565 127.887 124.081 146.188 124.081Z" fill="#4A0101"/>
<path opacity="0.077" d="M146.188 123.72C164.033 123.72 178.5 117.366 178.5 109.528C178.5 101.69 164.033 95.3359 146.188 95.3359C128.343 95.3359 113.876 101.69 113.876 109.528C113.876 117.366 128.343 123.72 146.188 123.72Z" fill="#480202"/>
<path opacity="0.115" d="M146.187 123.36C163.582 123.36 177.683 117.167 177.683 109.528C177.683 101.889 163.582 95.6963 146.187 95.6963C128.793 95.6963 114.691 101.889 114.691 109.528C114.691 117.167 128.793 123.36 146.187 123.36Z" fill="#460303"/>
<path opacity="0.154" d="M146.188 123.001C163.127 123.001 176.86 116.969 176.86 109.529C176.86 102.088 163.127 96.0566 146.188 96.0566C129.248 96.0566 115.516 102.088 115.516 109.529C115.516 116.969 129.248 123.001 146.188 123.001Z" fill="#440404"/>
<path opacity="0.192" d="M146.188 122.64C162.672 122.64 176.036 116.77 176.036 109.528C176.036 102.286 162.672 96.416 146.188 96.416C129.703 96.416 116.34 102.286 116.34 109.528C116.34 116.77 129.703 122.64 146.188 122.64Z" fill="#420505"/>
<path opacity="0.231" d="M146.187 122.28C162.221 122.28 175.219 116.571 175.219 109.528C175.219 102.486 162.221 96.7764 146.187 96.7764C130.153 96.7764 117.155 102.486 117.155 109.528C117.155 116.571 130.153 122.28 146.187 122.28Z" fill="#400606"/>
<path opacity="0.269" d="M146.188 121.921C161.766 121.921 174.395 116.373 174.395 109.529C174.395 102.685 161.766 97.1367 146.188 97.1367C130.609 97.1367 117.979 102.685 117.979 109.529C117.979 116.373 130.609 121.921 146.188 121.921Z" fill="#3E0606"/>
<path opacity="0.308" d="M146.188 121.56C161.311 121.56 173.572 116.173 173.572 109.528C173.572 102.883 161.311 97.4961 146.188 97.4961C131.064 97.4961 118.804 102.883 118.804 109.528C118.804 116.173 131.064 121.56 146.188 121.56Z" fill="#3C0707"/>
<path opacity="0.346" d="M146.188 121.192C160.857 121.192 172.748 115.97 172.748 109.528C172.748 103.086 160.857 97.8643 146.188 97.8643C131.519 97.8643 119.628 103.086 119.628 109.528C119.628 115.97 131.519 121.192 146.188 121.192Z" fill="#3A0808"/>
<path opacity="0.385" d="M146.187 120.833C160.405 120.833 171.931 115.772 171.931 109.529C171.931 103.286 160.405 98.2246 146.187 98.2246C131.969 98.2246 120.443 103.286 120.443 109.529C120.443 115.772 131.969 120.833 146.187 120.833Z" fill="#380909"/>
<path opacity="0.423" d="M146.188 120.472C159.951 120.472 171.108 115.572 171.108 109.528C171.108 103.484 159.951 98.584 146.188 98.584C132.425 98.584 121.268 103.484 121.268 109.528C121.268 115.572 132.425 120.472 146.188 120.472Z" fill="#360A0A"/>
<path opacity="0.462" d="M146.188 120.112C159.496 120.112 170.284 115.374 170.284 109.528C170.284 103.683 159.496 98.9443 146.188 98.9443C132.88 98.9443 122.092 103.683 122.092 109.528C122.092 115.374 132.88 120.112 146.188 120.112Z" fill="#340B0B"/>
<path opacity="0.5" d="M146.188 119.753C159.041 119.753 169.46 115.175 169.46 109.529C169.46 103.882 159.041 99.3047 146.188 99.3047C133.335 99.3047 122.916 103.882 122.916 109.529C122.916 115.175 133.335 119.753 146.188 119.753Z" fill="#330C0C"/>
<path opacity="0.538" d="M146.187 119.392C158.59 119.392 168.643 114.976 168.643 109.528C168.643 104.08 158.59 99.6641 146.187 99.6641C133.785 99.6641 123.731 104.08 123.731 109.528C123.731 114.976 133.785 119.392 146.187 119.392Z" fill="#310D0D"/>
<path opacity="0.577" d="M146.188 119.032C158.135 119.032 167.82 114.777 167.82 109.528C167.82 104.279 158.135 100.024 146.188 100.024C134.241 100.024 124.556 104.279 124.556 109.528C124.556 114.777 134.241 119.032 146.188 119.032Z" fill="#2F0E0E"/>
<path opacity="0.615" d="M146.188 118.673C157.68 118.673 166.996 114.579 166.996 109.529C166.996 104.479 157.68 100.385 146.188 100.385C134.696 100.385 125.38 104.479 125.38 109.529C125.38 114.579 134.696 118.673 146.188 118.673Z" fill="#2D0F0F"/>
<path opacity="0.654" d="M146.187 118.304C157.224 118.304 166.171 114.375 166.171 109.528C166.171 104.681 157.224 100.752 146.187 100.752C135.15 100.752 126.203 104.681 126.203 109.528C126.203 114.375 135.15 118.304 146.187 118.304Z" fill="#2B1010"/>
<path opacity="0.692" d="M146.188 117.944C156.774 117.944 165.356 114.176 165.356 109.528C165.356 104.88 156.774 101.112 146.188 101.112C135.601 101.112 127.02 104.88 127.02 109.528C127.02 114.176 135.601 117.944 146.188 117.944Z" fill="#291111"/>
<path opacity="0.731" d="M146.188 117.585C156.319 117.585 164.532 113.978 164.532 109.529C164.532 105.079 156.319 101.473 146.188 101.473C136.057 101.473 127.844 105.079 127.844 109.529C127.844 113.978 136.057 117.585 146.188 117.585Z" fill="#271212"/>
<path opacity="0.769" d="M146.188 117.224C155.864 117.224 163.708 113.778 163.708 109.528C163.708 105.278 155.864 101.832 146.188 101.832C136.512 101.832 128.668 105.278 128.668 109.528C128.668 113.778 136.512 117.224 146.188 117.224Z" fill="#251212"/>
<path opacity="0.808" d="M146.187 116.864C155.408 116.864 162.883 113.58 162.883 109.528C162.883 105.477 155.408 102.192 146.187 102.192C136.966 102.192 129.491 105.477 129.491 109.528C129.491 113.58 136.966 116.864 146.187 116.864Z" fill="#231313"/>
<path opacity="0.846" d="M146.188 116.505C154.958 116.505 162.068 113.381 162.068 109.529C162.068 105.676 154.958 102.553 146.188 102.553C137.417 102.553 130.308 105.676 130.308 109.529C130.308 113.381 137.417 116.505 146.188 116.505Z" fill="#211414"/>
<path opacity="0.885" d="M146.188 116.144C154.503 116.144 161.244 113.182 161.244 109.528C161.244 105.874 154.503 102.912 146.188 102.912C137.873 102.912 131.132 105.874 131.132 109.528C131.132 113.182 137.873 116.144 146.188 116.144Z" fill="#1F1515"/>
<path opacity="0.923" d="M146.187 115.784C154.047 115.784 160.419 112.984 160.419 109.528C160.419 106.073 154.047 103.272 146.187 103.272C138.327 103.272 131.955 106.073 131.955 109.528C131.955 112.984 138.327 115.784 146.187 115.784Z" fill="#1D1616"/>
<path opacity="0.962" d="M146.187 115.417C153.597 115.417 159.603 112.78 159.603 109.529C159.603 106.277 153.597 103.641 146.187 103.641C138.778 103.641 132.771 106.277 132.771 109.529C132.771 112.78 138.778 115.417 146.187 115.417Z" fill="#1B1717"/>
<path d="M146.188 115.056C153.142 115.056 158.78 112.581 158.78 109.528C158.78 106.475 153.142 104 146.188 104C139.233 104 133.596 106.475 133.596 109.528C133.596 112.581 139.233 115.056 146.188 115.056Z" fill="#191818"/>
</g>
<g opacity="0.17">
<path opacity="0.038" d="M43.3475 133.344C55.5861 133.344 65.5075 128.985 65.5075 123.608C65.5075 118.231 55.5861 113.872 43.3475 113.872C31.1089 113.872 21.1875 118.231 21.1875 123.608C21.1875 128.985 31.1089 133.344 43.3475 133.344Z" fill="#4A0101"/>
<path opacity="0.077" d="M43.3473 133.096C55.281 133.096 64.9553 128.848 64.9553 123.608C64.9553 118.368 55.281 114.12 43.3473 114.12C31.4135 114.12 21.7393 118.368 21.7393 123.608C21.7393 128.848 31.4135 133.096 43.3473 133.096Z" fill="#480202"/>
<path opacity="0.115" d="M43.348 132.855C54.9769 132.855 64.404 128.715 64.404 123.607C64.404 118.5 54.9769 114.359 43.348 114.359C31.7191 114.359 22.292 118.5 22.292 123.607C22.292 128.715 31.7191 132.855 43.348 132.855Z" fill="#460303"/>
<path opacity="0.154" d="M43.3479 132.616C54.6764 132.616 63.8599 128.583 63.8599 123.608C63.8599 118.633 54.6764 114.6 43.3479 114.6C32.0195 114.6 22.8359 118.633 22.8359 123.608C22.8359 128.583 32.0195 132.616 43.3479 132.616Z" fill="#440404"/>
<path opacity="0.192" d="M43.3477 132.376C54.3713 132.376 63.3077 128.45 63.3077 123.608C63.3077 118.765 54.3713 114.84 43.3477 114.84C32.3241 114.84 23.3877 118.765 23.3877 123.608C23.3877 128.45 32.3241 132.376 43.3477 132.376Z" fill="#420505"/>
<path opacity="0.231" d="M43.3475 132.136C54.0662 132.136 62.7554 128.318 62.7554 123.608C62.7554 118.898 54.0662 115.08 43.3475 115.08C32.6287 115.08 23.9395 118.898 23.9395 123.608C23.9395 128.318 32.6287 132.136 43.3475 132.136Z" fill="#400606"/>
<path opacity="0.269" d="M43.3474 131.896C53.7657 131.896 62.2114 128.186 62.2114 123.608C62.2114 119.031 53.7657 115.32 43.3474 115.32C32.9291 115.32 24.4834 119.031 24.4834 123.608C24.4834 128.186 32.9291 131.896 43.3474 131.896Z" fill="#3E0606"/>
<path opacity="0.308" d="M43.3472 131.647C53.4606 131.647 61.6592 128.048 61.6592 123.607C61.6592 119.167 53.4606 115.567 43.3472 115.567C33.2337 115.567 25.0352 119.167 25.0352 123.607C25.0352 128.048 33.2337 131.647 43.3472 131.647Z" fill="#3C0707"/>
<path opacity="0.346" d="M43.3479 131.408C53.1565 131.408 61.1079 127.915 61.1079 123.608C61.1079 119.3 53.1565 115.808 43.3479 115.808C33.5393 115.808 25.5879 119.3 25.5879 123.608C25.5879 127.915 33.5393 131.408 43.3479 131.408Z" fill="#3A0808"/>
<path opacity="0.385" d="M43.3478 131.168C52.856 131.168 60.5638 127.783 60.5638 123.608C60.5638 119.433 52.856 116.048 43.3478 116.048C33.8397 116.048 26.1318 119.433 26.1318 123.608C26.1318 127.783 33.8397 131.168 43.3478 131.168Z" fill="#380909"/>
<path opacity="0.423" d="M43.3476 130.928C52.5509 130.928 60.0116 127.651 60.0116 123.608C60.0116 119.565 52.5509 116.288 43.3476 116.288C34.1443 116.288 26.6836 119.565 26.6836 123.608C26.6836 127.651 34.1443 130.928 43.3476 130.928Z" fill="#360A0A"/>
<path opacity="0.462" d="M43.3473 130.688C52.2458 130.688 59.4594 127.518 59.4594 123.608C59.4594 119.698 52.2458 116.528 43.3473 116.528C34.4489 116.528 27.2354 119.698 27.2354 123.608C27.2354 127.518 34.4489 130.688 43.3473 130.688Z" fill="#340B0B"/>
<path opacity="0.5" d="M43.3471 130.448C51.9407 130.448 58.9071 127.385 58.9071 123.608C58.9071 119.83 51.9407 116.768 43.3471 116.768C34.7536 116.768 27.7871 119.83 27.7871 123.608C27.7871 127.385 34.7536 130.448 43.3471 130.448Z" fill="#330C0C"/>
<path opacity="0.538" d="M43.348 130.2C51.6411 130.2 58.364 127.248 58.364 123.608C58.364 119.967 51.6411 117.016 43.348 117.016C35.0549 117.016 28.332 119.967 28.332 123.608C28.332 127.248 35.0549 130.2 43.348 130.2Z" fill="#310D0D"/>
<path opacity="0.577" d="M43.3478 129.96C51.336 129.96 57.8118 127.116 57.8118 123.608C57.8118 120.1 51.336 117.256 43.3478 117.256C35.3595 117.256 28.8838 120.1 28.8838 123.608C28.8838 127.116 35.3595 129.96 43.3478 129.96Z" fill="#2F0E0E"/>
<path opacity="0.615" d="M43.3475 129.72C51.0309 129.72 57.2595 126.984 57.2595 123.608C57.2595 120.233 51.0309 117.496 43.3475 117.496C35.6642 117.496 29.4355 120.233 29.4355 123.608C29.4355 126.984 35.6642 129.72 43.3475 129.72Z" fill="#2D0F0F"/>
<path opacity="0.654" d="M43.3475 129.48C50.7304 129.48 56.7155 126.851 56.7155 123.608C56.7155 120.365 50.7304 117.736 43.3475 117.736C35.9645 117.736 29.9795 120.365 29.9795 123.608C29.9795 126.851 35.9645 129.48 43.3475 129.48Z" fill="#2B1010"/>
<path opacity="0.692" d="M43.3472 129.24C50.4253 129.24 56.1632 126.718 56.1632 123.608C56.1632 120.497 50.4253 117.976 43.3472 117.976C36.2692 117.976 30.5312 120.497 30.5312 123.608C30.5312 126.718 36.2692 129.24 43.3472 129.24Z" fill="#291111"/>
<path opacity="0.731" d="M43.348 128.992C50.1212 128.992 55.612 126.581 55.612 123.608C55.612 120.634 50.1212 118.224 43.348 118.224C36.5748 118.224 31.084 120.634 31.084 123.608C31.084 126.581 36.5748 128.992 43.348 128.992Z" fill="#271212"/>
<path opacity="0.769" d="M43.3479 128.752C49.8207 128.752 55.0679 126.449 55.0679 123.608C55.0679 120.767 49.8207 118.464 43.3479 118.464C36.8752 118.464 31.6279 120.767 31.6279 123.608C31.6279 126.449 36.8752 128.752 43.3479 128.752Z" fill="#251212"/>
<path opacity="0.808" d="M43.3477 128.512C49.5156 128.512 54.5157 126.317 54.5157 123.608C54.5157 120.9 49.5156 118.704 43.3477 118.704C37.1798 118.704 32.1797 120.9 32.1797 123.608C32.1797 126.317 37.1798 128.512 43.3477 128.512Z" fill="#231313"/>
<path opacity="0.846" d="M43.3474 128.272C49.2105 128.272 53.9634 126.184 53.9634 123.608C53.9634 121.032 49.2105 118.944 43.3474 118.944C37.4844 118.944 32.7314 121.032 32.7314 123.608C32.7314 126.184 37.4844 128.272 43.3474 128.272Z" fill="#211414"/>
<path opacity="0.885" d="M43.3472 128.032C48.9054 128.032 53.4112 126.051 53.4112 123.608C53.4112 121.164 48.9054 119.184 43.3472 119.184C37.789 119.184 33.2832 121.164 33.2832 123.608C33.2832 126.051 37.789 128.032 43.3472 128.032Z" fill="#1F1515"/>
<path opacity="0.923" d="M43.3471 127.792C48.6049 127.792 52.8671 125.919 52.8671 123.608C52.8671 121.297 48.6049 119.424 43.3471 119.424C38.0894 119.424 33.8271 121.297 33.8271 123.608C33.8271 125.919 38.0894 127.792 43.3471 127.792Z" fill="#1D1616"/>
<path opacity="0.962" d="M43.3479 127.544C48.3008 127.544 52.3159 125.782 52.3159 123.608C52.3159 121.434 48.3008 119.672 43.3479 119.672C38.395 119.672 34.3799 121.434 34.3799 123.608C34.3799 125.782 38.395 127.544 43.3479 127.544Z" fill="#1B1717"/>
<path d="M43.3476 127.304C47.9957 127.304 51.7636 125.649 51.7636 123.608C51.7636 121.567 47.9957 119.912 43.3476 119.912C38.6996 119.912 34.9316 121.567 34.9316 123.608C34.9316 125.649 38.6996 127.304 43.3476 127.304Z" fill="#191818"/>
</g>
<path d="M137.3 36.6396L132.188 72.4956L107.188 87.2956L96.4121 93.8876L90.4921 83.2076L69.9961 47.6396C69.0441 45.9276 66.4521 46.4716 66.2601 48.4236L59.9001 107.664C59.7961 108.752 60.0201 109.808 60.4921 110.736C61.1081 111.936 62.1481 112.896 63.4761 113.4L131.636 139.048C133.124 139.608 134.708 139.024 135.524 137.808C135.804 137.408 135.988 136.936 136.06 136.416L145.396 68.6156C145.524 67.7436 137.3 36.6396 137.3 36.6396Z" fill="url(#paint0_linear_11926_51442)"/>
<path d="M68.0762 50.6559L74.7882 11.0159C75.1322 8.98388 77.1562 7.68787 79.1482 8.23187L143.452 25.7759C145.292 26.2799 146.452 28.0959 146.132 29.9759L139.548 68.6959L93.9402 100.952L68.0762 50.6559Z" fill="url(#paint1_linear_11926_51442)"/>
<path d="M66.5801 51.5123L73.2921 11.8723C73.6361 9.84032 75.6601 8.54432 77.6521 9.08832L141.956 26.6323C143.796 27.1363 144.956 28.9523 144.636 30.8323L138.052 69.5523L92.4441 101.808L66.5801 51.5123Z" fill="url(#paint2_linear_11926_51442)"/>
<path d="M142.276 70.8562L132.94 138.656C132.868 139.176 132.676 139.656 132.404 140.048C131.588 141.264 130.004 141.848 128.516 141.288L60.3565 115.64C59.0285 115.136 57.9885 114.176 57.3725 112.976C56.8925 112.048 56.6765 110.992 56.7805 109.904L62.6605 48.4082C62.8525 46.4562 65.4445 45.9122 66.3965 47.6242L87.3725 85.4482L93.2925 96.1282L104.068 89.5362L138.58 68.4242C140.34 67.3602 142.556 68.8082 142.276 70.8562Z" fill="url(#paint3_linear_11926_51442)"/>
<path d="M56.7882 110.728L62.6682 49.232C62.8602 47.28 65.4522 46.736 66.4042 48.448L87.3802 86.272L93.3002 96.952L104.076 90.36L138.588 69.248C140.124 68.312 142.004 69.296 142.276 70.912L142.284 70.84C142.564 68.8 140.348 67.344 138.588 68.416L104.06 89.544L93.2842 96.136L87.3642 85.456L66.3882 47.632C65.4362 45.92 62.8442 46.464 62.6522 48.416L56.7722 109.912C56.7402 110.232 56.7402 110.544 56.7642 110.856C56.7802 110.808 56.7802 110.768 56.7882 110.728Z" fill="url(#paint4_linear_11926_51442)"/>
<g opacity="0.24">
<path opacity="0.038" d="M131.46 107.632C131.46 118.28 117.164 125.36 99.5315 123.448C81.8995 121.536 67.6035 111.352 67.6035 100.704C67.6035 90.0559 81.8995 82.9759 99.5315 84.8879C117.164 86.7999 131.46 96.9839 131.46 107.632Z" fill="#4A0101"/>
<path opacity="0.077" d="M130.668 107.544C130.668 117.928 116.724 124.832 99.5315 122.968C82.3315 121.104 68.3955 111.168 68.3955 100.784C68.3955 90.3995 82.3395 83.4955 99.5315 85.3595C116.724 87.2315 130.668 97.1595 130.668 107.544Z" fill="#480202"/>
<path opacity="0.115" d="M129.876 107.456C129.876 117.576 116.292 124.304 99.5315 122.488C82.7715 120.672 69.1875 110.992 69.1875 100.872C69.1875 90.7519 82.7715 84.0239 99.5315 85.8399C116.292 87.6559 129.876 97.3359 129.876 107.456Z" fill="#460303"/>
<path opacity="0.154" d="M129.083 107.375C129.083 117.231 115.851 123.783 99.5315 122.015C83.2115 120.247 69.9795 110.815 69.9795 100.959C69.9795 91.1034 83.2115 84.5514 99.5315 86.3194C115.851 88.0874 129.083 97.5193 129.083 107.375Z" fill="#440404"/>
<path opacity="0.192" d="M128.291 107.288C128.291 116.88 115.411 123.264 99.5315 121.536C83.6435 119.816 70.7715 110.64 70.7715 101.048C70.7715 91.4559 83.6515 85.0719 99.5315 86.7999C115.411 88.5199 128.291 97.6959 128.291 107.288Z" fill="#420505"/>
<path opacity="0.231" d="M127.499 107.199C127.499 116.527 114.979 122.735 99.5315 121.055C84.0835 119.375 71.5635 110.455 71.5635 101.127C71.5635 91.7995 84.0835 85.5915 99.5315 87.2715C114.979 88.9515 127.499 97.8715 127.499 107.199Z" fill="#400606"/>
<path opacity="0.269" d="M126.707 107.112C126.707 116.176 114.539 122.208 99.5315 120.576C84.5235 118.944 72.3555 110.28 72.3555 101.216C72.3555 92.1519 84.5235 86.1199 99.5315 87.7519C114.539 89.3839 126.707 98.0479 126.707 107.112Z" fill="#3E0606"/>
<path opacity="0.308" d="M125.915 107.031C125.915 115.831 114.099 121.687 99.5315 120.103C84.9555 118.519 73.1475 110.103 73.1475 101.303C73.1475 92.5033 84.9635 86.6473 99.5315 88.2313C114.099 89.8153 125.915 98.2313 125.915 107.031Z" fill="#3C0707"/>
<path opacity="0.346" d="M125.123 106.944C125.123 115.48 113.667 121.16 99.5315 119.624C85.3955 118.088 73.9395 109.928 73.9395 101.392C73.9395 92.8557 85.3955 87.1757 99.5315 88.7117C113.667 90.2477 125.123 98.4077 125.123 106.944Z" fill="#3A0808"/>
<path opacity="0.385" d="M124.331 106.855C124.331 115.127 113.227 120.631 99.5314 119.143C85.8354 117.655 74.7314 109.743 74.7314 101.471C74.7314 93.1993 85.8354 87.6953 99.5314 89.1833C113.227 90.6713 124.331 98.5833 124.331 106.855Z" fill="#380909"/>
<path opacity="0.423" d="M123.539 106.768C123.539 114.776 112.787 120.104 99.5314 118.664C86.2674 117.224 75.5234 109.568 75.5234 101.56C75.5234 93.5517 86.2754 88.2237 99.5314 89.6637C112.787 91.1037 123.539 98.7597 123.539 106.768Z" fill="#360A0A"/>
<path opacity="0.462" d="M122.747 106.687C122.747 114.431 112.355 119.583 99.5314 118.191C86.7074 116.799 76.3154 109.391 76.3154 101.647C76.3154 93.9031 86.7074 88.7511 99.5314 90.1431C112.355 91.5351 122.747 98.9431 122.747 106.687Z" fill="#340B0B"/>
<path opacity="0.5" d="M121.955 106.599C121.955 114.079 111.915 119.055 99.5314 117.711C87.1474 116.367 77.1074 109.215 77.1074 101.735C77.1074 94.2555 87.1474 89.2795 99.5314 90.6235C111.915 91.9675 121.955 99.1195 121.955 106.599Z" fill="#330C0C"/>
<path opacity="0.538" d="M121.163 106.511C121.163 113.727 111.475 118.527 99.5314 117.231C87.5874 115.935 77.8994 109.031 77.8994 101.815C77.8994 94.5991 87.5874 89.7991 99.5314 91.0951C111.475 92.3911 121.163 99.2951 121.163 106.511Z" fill="#310D0D"/>
<path opacity="0.577" d="M120.371 106.423C120.371 113.375 111.043 117.999 99.5314 116.751C88.0194 115.503 78.6914 108.855 78.6914 101.903C78.6914 94.9515 88.0194 90.3275 99.5314 91.5755C111.043 92.8315 120.371 99.4795 120.371 106.423Z" fill="#2F0E0E"/>
<path opacity="0.615" d="M119.579 106.344C119.579 113.032 110.603 117.48 99.5314 116.28C88.4594 115.08 79.4834 108.68 79.4834 102C79.4834 95.3117 88.4594 90.8637 99.5314 92.0637C110.603 93.2637 119.579 99.6557 119.579 106.344Z" fill="#2D0F0F"/>
<path opacity="0.654" d="M118.787 106.255C118.787 112.679 110.163 116.951 99.5314 115.799C88.8994 114.647 80.2754 108.503 80.2754 102.079C80.2754 95.6553 88.8994 91.3833 99.5314 92.5353C110.163 93.6873 118.787 99.8313 118.787 106.255Z" fill="#2B1010"/>
<path opacity="0.692" d="M117.995 106.167C117.995 112.327 109.731 116.423 99.5314 115.319C89.3314 114.215 81.0674 108.319 81.0674 102.167C81.0674 96.0154 89.3314 91.9114 99.5314 93.0154C109.731 94.1194 117.995 100.007 117.995 106.167Z" fill="#291111"/>
<path opacity="0.731" d="M117.203 106.087C117.203 111.983 109.291 115.903 99.5314 114.847C89.7714 113.791 81.8594 108.151 81.8594 102.255C81.8594 96.3591 89.7714 92.4391 99.5314 93.4951C109.291 94.5511 117.203 100.191 117.203 106.087Z" fill="#271212"/>
<path opacity="0.769" d="M116.411 106C116.411 111.632 108.851 115.376 99.5314 114.36C90.2114 113.352 82.6514 107.96 82.6514 102.336C82.6514 96.7116 90.2114 92.9596 99.5314 93.9756C108.851 94.9836 116.411 100.368 116.411 106Z" fill="#251212"/>
<path opacity="0.808" d="M115.619 105.911C115.619 111.279 108.411 114.847 99.5314 113.879C90.6434 112.911 83.4434 107.783 83.4434 102.415C83.4434 97.0475 90.6514 93.4795 99.5314 94.4475C108.419 95.4155 115.619 100.543 115.619 105.911Z" fill="#231313"/>
<path opacity="0.846" d="M114.827 105.824C114.827 110.928 107.979 114.32 99.5314 113.4C91.0834 112.48 84.2354 107.6 84.2354 102.504C84.2354 97.3999 91.0834 94.0079 99.5314 94.9279C107.979 95.8479 114.827 100.72 114.827 105.824Z" fill="#211414"/>
<path opacity="0.885" d="M114.035 105.743C114.035 110.583 107.539 113.799 99.5313 112.927C91.5233 112.055 85.0273 107.431 85.0273 102.591C85.0273 97.7513 91.5233 94.5353 99.5313 95.4073C107.539 96.2713 114.035 100.903 114.035 105.743Z" fill="#1F1515"/>
<path opacity="0.923" d="M113.243 105.656C113.243 110.232 107.099 113.272 99.5313 112.448C91.9553 111.624 85.8193 107.248 85.8193 102.68C85.8193 98.1037 91.9633 95.0637 99.5313 95.8877C107.099 96.7117 113.243 101.08 113.243 105.656Z" fill="#1D1616"/>
<path opacity="0.962" d="M112.451 105.567C112.451 109.879 106.667 112.743 99.5313 111.967C92.3953 111.191 86.6113 107.071 86.6113 102.759C86.6113 98.4473 92.3953 95.5833 99.5313 96.3593C106.667 97.1353 112.451 101.255 112.451 105.567Z" fill="#1B1717"/>
<path d="M111.659 105.48C111.659 109.528 106.227 112.216 99.5313 111.488C92.8353 110.76 87.4033 106.888 87.4033 102.848C87.4033 98.7997 92.8353 96.1117 99.5313 96.8397C106.227 97.5677 111.659 101.44 111.659 105.48Z" fill="#191818"/>
</g>
<path d="M133.268 138.968C132.452 140.184 130.868 140.768 129.38 140.208L61.2203 114.56C59.8923 114.056 58.8523 113.096 58.2363 111.896L88.2283 84.3755L93.0363 79.9595C95.4283 77.7595 99.2523 78.3675 100.844 81.2075L104.924 88.4715L133.268 138.968Z" fill="url(#paint5_linear_11926_51442)"/>
<path d="M132.404 140.048C131.588 141.264 130.004 141.848 128.516 141.288L60.3561 115.64C59.0281 115.136 57.9881 114.176 57.3721 112.976L87.3641 85.4556L92.1721 81.0396C94.5641 78.8396 98.3881 79.4476 99.9801 82.2876L104.06 89.5516L132.404 140.048Z" fill="url(#paint6_linear_11926_51442)"/>
<path d="M87.2121 85.7683L92.0201 81.3523C94.4121 79.1523 98.2361 79.7603 99.8281 82.6003L103.908 89.8643L132.22 140.304C132.284 140.224 132.348 140.136 132.412 140.048L104.06 89.5443L99.9801 82.2803C98.3881 79.4483 94.5721 78.8323 92.1721 81.0323L87.3641 85.4483L57.3721 112.968C57.3881 113.008 57.4121 113.04 57.4361 113.08L87.2121 85.7683Z" fill="url(#paint7_linear_11926_51442)"/>
<path d="M64.1084 46.6L69.1724 44.168L68.2204 49.776L88.2284 84.376L87.3724 85.448L64.1084 46.6Z" fill="url(#paint8_linear_11926_51442)"/>
<path d="M116.764 57.5922C114.636 64.4962 107.66 68.2722 100.356 65.9122C93.3403 63.6402 88.3803 56.2162 88.9403 48.8002C89.5963 40.1362 97.1323 34.8162 105.252 37.0082C110.156 38.3362 114.1 42.0882 116.068 46.6962C116.612 47.9682 117.94 48.6882 119.108 48.2962L119.236 48.2562C120.156 47.9442 120.596 46.8722 120.196 45.8642C117.66 39.3842 112.132 34.0882 105.228 32.4802C95.6523 30.2482 86.7163 36.1442 84.9403 45.8882C82.9883 56.5762 90.0683 67.7122 100.436 70.5122C110.564 73.2482 119.996 66.9922 121.5 56.5362C121.5 56.5282 121.5 56.5282 121.5 56.5202C121.588 55.8882 120.972 55.3122 120.388 55.4882L118.148 56.1602C117.484 56.3442 116.98 56.8882 116.764 57.5922Z" fill="url(#paint9_linear_11926_51442)"/>
<path d="M102.46 58.1442C102.108 58.0482 101.772 57.9042 101.436 57.7122C100.476 57.1522 99.7403 56.2562 99.3643 55.1842L95.1403 43.2002C94.8203 42.3042 95.2363 41.3762 96.0523 41.1442C96.8763 40.9042 97.7963 41.4402 98.1163 42.3442L102.34 54.3282C102.436 54.6002 102.628 54.7442 102.732 54.8082C102.836 54.8722 103.052 54.9602 103.3 54.8882L126.348 48.1922C127.172 47.9522 128.092 48.4882 128.412 49.3842C128.732 50.2802 128.324 51.2082 127.5 51.4482L104.452 58.1442C103.804 58.3282 103.124 58.3202 102.46 58.1442Z" fill="url(#paint10_linear_11926_51442)"/>
<path d="M137.724 72.6394L167.94 78.9994C169.284 79.2554 170.22 80.5434 170.004 81.8554L164.444 116.591C164.268 117.695 163.14 118.351 162.044 117.983L131.636 109.519C130.532 109.159 129.82 108.055 129.972 106.943L135.26 74.3594C135.42 73.1834 136.524 72.4154 137.724 72.6394Z" fill="url(#paint11_linear_11926_51442)"/>
<path d="M137.508 72.3675L167.724 78.7275C169.068 78.9835 170.004 80.2715 169.788 81.5835L164.228 116.32C164.052 117.424 162.924 118.08 161.828 117.712L131.42 109.248C130.316 108.888 129.604 107.784 129.756 106.672L135.052 74.0795C135.204 72.9035 136.308 72.1355 137.508 72.3675Z" fill="url(#paint12_linear_11926_51442)"/>
<path d="M139.956 81.1436L164.188 86.9275" stroke="#CCCCCC" stroke-width="6.923" stroke-miterlimit="10" stroke-linecap="round" stroke-linejoin="round"/>
<path d="M139.46 83.8398L163.684 89.6478" stroke="#CCCCCC" stroke-width="6.923" stroke-miterlimit="10" stroke-linecap="round" stroke-linejoin="round"/>
<path d="M138.964 86.5352L163.18 92.3752" stroke="#CCCCCC" stroke-width="6.923" stroke-miterlimit="10" stroke-linecap="round" stroke-linejoin="round"/>
<path d="M138.468 89.2314L162.676 95.0954" stroke="#CCCCCC" stroke-width="6.923" stroke-miterlimit="10" stroke-linecap="round" stroke-linejoin="round"/>
<path d="M137.972 91.9277L162.172 97.8237" stroke="#CCCCCC" stroke-width="6.923" stroke-miterlimit="10" stroke-linecap="round" stroke-linejoin="round"/>
<path d="M137.476 94.623L161.66 100.543" stroke="#CCCCCC" stroke-width="6.923" stroke-miterlimit="10" stroke-linecap="round" stroke-linejoin="round"/>
<path d="M136.979 97.3271L161.155 103.263" stroke="#CCCCCC" stroke-width="6.923" stroke-miterlimit="10" stroke-linecap="round" stroke-linejoin="round"/>
<path d="M136.483 100.023L160.651 105.991" stroke="#CCCCCC" stroke-width="6.923" stroke-miterlimit="10" stroke-linecap="round" stroke-linejoin="round"/>
<g opacity="0.17">
<path opacity="0.038" d="M65.8276 125.897C74.536 125.897 81.5956 117.938 81.5956 108.121C81.5956 98.3033 74.536 90.3447 65.8276 90.3447C57.1191 90.3447 50.0596 98.3033 50.0596 108.121C50.0596 117.938 57.1191 125.897 65.8276 125.897Z" fill="#4A0101"/>
<path opacity="0.077" d="M65.8281 125.456C74.3201 125.456 81.2042 117.695 81.2042 108.12C81.2042 98.5458 74.3201 90.7842 65.8281 90.7842C57.3362 90.7842 50.4521 98.5458 50.4521 108.12C50.4521 117.695 57.3362 125.456 65.8281 125.456Z" fill="#480202"/>
<path opacity="0.115" d="M65.8277 125.017C74.1032 125.017 80.8118 117.452 80.8118 108.121C80.8118 98.7892 74.1032 91.2246 65.8277 91.2246C57.5523 91.2246 50.8438 98.7892 50.8438 108.121C50.8438 117.452 57.5523 125.017 65.8277 125.017Z" fill="#460303"/>
<path opacity="0.154" d="M65.8273 124.576C73.8863 124.576 80.4193 117.208 80.4193 108.12C80.4193 99.0317 73.8863 91.6641 65.8273 91.6641C57.7684 91.6641 51.2354 99.0317 51.2354 108.12C51.2354 117.208 57.7684 124.576 65.8273 124.576Z" fill="#440404"/>
<path opacity="0.192" d="M65.8279 124.136C73.6704 124.136 80.0279 116.966 80.0279 108.12C80.0279 99.2751 73.6704 92.1045 65.8279 92.1045C57.9855 92.1045 51.6279 99.2751 51.6279 108.12C51.6279 116.966 57.9855 124.136 65.8279 124.136Z" fill="#420505"/>
<path opacity="0.231" d="M65.8275 123.689C73.4535 123.689 79.6355 116.719 79.6355 108.121C79.6355 99.5228 73.4535 92.5527 65.8275 92.5527C58.2016 92.5527 52.0195 99.5228 52.0195 108.121C52.0195 116.719 58.2016 123.689 65.8275 123.689Z" fill="#400606"/>
<path opacity="0.269" d="M65.8281 123.248C73.2376 123.248 79.2441 116.475 79.2441 108.12C79.2441 99.7652 73.2376 92.9922 65.8281 92.9922C58.4187 92.9922 52.4121 99.7652 52.4121 108.12C52.4121 116.475 58.4187 123.248 65.8281 123.248Z" fill="#3E0606"/>
<path opacity="0.308" d="M65.8277 122.809C73.0207 122.809 78.8517 116.233 78.8517 108.121C78.8517 100.009 73.0207 93.4326 65.8277 93.4326C58.6348 93.4326 52.8037 100.009 52.8037 108.121C52.8037 116.233 58.6348 122.809 65.8277 122.809Z" fill="#3C0707"/>
<path opacity="0.346" d="M65.8275 122.368C72.8084 122.368 78.4675 115.989 78.4675 108.12C78.4675 100.251 72.8084 93.8721 65.8275 93.8721C58.8466 93.8721 53.1875 100.251 53.1875 108.12C53.1875 115.989 58.8466 122.368 65.8275 122.368Z" fill="#3A0808"/>
<path opacity="0.385" d="M65.8281 121.928C72.5925 121.928 78.0761 115.746 78.0761 108.12C78.0761 100.495 72.5925 94.3125 65.8281 94.3125C59.0637 94.3125 53.5801 100.495 53.5801 108.12C53.5801 115.746 59.0637 121.928 65.8281 121.928Z" fill="#380909"/>
<path opacity="0.423" d="M65.8277 121.488C72.3756 121.488 77.6837 115.503 77.6837 108.12C77.6837 100.737 72.3756 94.752 65.8277 94.752C59.2798 94.752 53.9717 100.737 53.9717 108.12C53.9717 115.503 59.2798 121.488 65.8277 121.488Z" fill="#360A0A"/>
<path opacity="0.462" d="M65.8283 121.048C72.1596 121.048 77.2923 115.26 77.2923 108.12C77.2923 100.98 72.1596 95.1924 65.8283 95.1924C59.4969 95.1924 54.3643 100.98 54.3643 108.12C54.3643 115.26 59.4969 121.048 65.8283 121.048Z" fill="#340B0B"/>
<path opacity="0.5" d="M65.8279 120.608C71.9428 120.608 76.8999 115.017 76.8999 108.12C76.8999 101.223 71.9428 95.6318 65.8279 95.6318C59.713 95.6318 54.7559 101.223 54.7559 108.12C54.7559 115.017 59.713 120.608 65.8279 120.608Z" fill="#330C0C"/>
<path opacity="0.538" d="M65.8275 120.168C71.7259 120.168 76.5075 114.774 76.5075 108.12C76.5075 101.466 71.7259 96.0723 65.8275 96.0723C59.9291 96.0723 55.1475 101.466 55.1475 108.12C55.1475 114.774 59.9291 120.168 65.8275 120.168Z" fill="#310D0D"/>
<path opacity="0.577" d="M65.828 119.721C71.5099 119.721 76.116 114.527 76.116 108.121C76.116 101.714 71.5099 96.5205 65.828 96.5205C60.1461 96.5205 55.54 101.714 55.54 108.121C55.54 114.527 60.1461 119.721 65.828 119.721Z" fill="#2F0E0E"/>
<path opacity="0.615" d="M65.8276 119.28C71.293 119.28 75.7236 114.283 75.7236 108.12C75.7236 101.956 71.293 96.96 65.8276 96.96C60.3622 96.96 55.9316 101.956 55.9316 108.12C55.9316 114.283 60.3622 119.28 65.8276 119.28Z" fill="#2D0F0F"/>
<path opacity="0.654" d="M65.8274 118.84C71.0808 118.84 75.3394 114.041 75.3394 108.12C75.3394 102.2 71.0808 97.4004 65.8274 97.4004C60.5741 97.4004 56.3154 102.2 56.3154 108.12C56.3154 114.041 60.5741 118.84 65.8274 118.84Z" fill="#2B1010"/>
<path opacity="0.692" d="M65.828 118.4C70.8648 118.4 74.948 113.797 74.948 108.12C74.948 102.442 70.8648 97.8398 65.828 97.8398C60.7912 97.8398 56.708 102.442 56.708 108.12C56.708 113.797 60.7912 118.4 65.828 118.4Z" fill="#291111"/>
<path opacity="0.731" d="M65.8276 117.96C70.6479 117.96 74.5556 113.555 74.5556 108.12C74.5556 102.686 70.6479 98.2803 65.8276 98.2803C61.0073 98.2803 57.0996 102.686 57.0996 108.12C57.0996 113.555 61.0073 117.96 65.8276 117.96Z" fill="#271212"/>
<path opacity="0.769" d="M65.8282 117.521C70.432 117.521 74.1642 113.312 74.1642 108.121C74.1642 102.929 70.432 98.7207 65.8282 98.7207C61.2243 98.7207 57.4922 102.929 57.4922 108.121C57.4922 113.312 61.2243 117.521 65.8282 117.521Z" fill="#251212"/>
<path opacity="0.808" d="M65.8278 117.08C70.2151 117.08 73.7718 113.069 73.7718 108.12C73.7718 103.172 70.2151 99.1602 65.8278 99.1602C61.4404 99.1602 57.8838 103.172 57.8838 108.12C57.8838 113.069 61.4404 117.08 65.8278 117.08Z" fill="#231313"/>
<path opacity="0.846" d="M65.8274 116.641C69.9982 116.641 73.3794 112.826 73.3794 108.121C73.3794 103.415 69.9982 99.6006 65.8274 99.6006C61.6565 99.6006 58.2754 103.415 58.2754 108.121C58.2754 112.826 61.6565 116.641 65.8274 116.641Z" fill="#211414"/>
<path opacity="0.885" d="M65.828 116.2C69.7823 116.2 72.988 112.582 72.988 108.12C72.988 103.658 69.7823 100.04 65.828 100.04C61.8736 100.04 58.668 103.658 58.668 108.12C58.668 112.582 61.8736 116.2 65.828 116.2Z" fill="#1F1515"/>
<path opacity="0.923" d="M65.8276 115.752C69.5654 115.752 72.5956 112.335 72.5956 108.12C72.5956 103.905 69.5654 100.488 65.8276 100.488C62.0897 100.488 59.0596 103.905 59.0596 108.12C59.0596 112.335 62.0897 115.752 65.8276 115.752Z" fill="#1D1616"/>
<path opacity="0.962" d="M65.8274 115.313C69.3531 115.313 72.2114 112.093 72.2114 108.121C72.2114 104.149 69.3531 100.929 65.8274 100.929C62.3016 100.929 59.4434 104.149 59.4434 108.121C59.4434 112.093 62.3016 115.313 65.8274 115.313Z" fill="#1B1717"/>
<path d="M65.8279 114.872C69.1372 114.872 71.8199 111.849 71.8199 108.12C71.8199 104.391 69.1372 101.368 65.8279 101.368C62.5186 101.368 59.8359 104.391 59.8359 108.12C59.8359 111.849 62.5186 114.872 65.8279 114.872Z" fill="#191818"/>
</g>
<path d="M36.8282 80.7602L67.1402 89.0162C69.3722 89.5202 70.7882 91.7122 70.3402 93.9602L64.2362 124.488C63.7402 126.968 60.2682 130.056 57.8602 129.272L28.8522 117.864C26.8282 117.2 25.6202 115.136 26.0282 113.048L30.1082 84.1922C30.5642 81.8322 34.5002 80.2322 36.8282 80.7602Z" fill="url(#paint13_linear_11926_51442)"/>
<path d="M34.5479 82.1442L64.8599 90.4002C67.0919 90.9042 68.5079 93.0962 68.0599 95.3442L61.9559 125.872C61.4599 128.352 58.9079 129.84 56.4999 129.056L26.5719 119.24C24.5479 118.576 23.3399 116.512 23.7479 114.424L29.4679 85.4562C29.9239 83.1122 32.2199 81.6162 34.5479 82.1442Z" fill="url(#paint14_linear_11926_51442)"/>
<path d="M55.2757 104.801L48.8997 91.7285L37.7637 100.273L43.4357 101.737L40.4357 114.905L46.9877 116.609L49.6117 103.337L55.2757 104.801Z" fill="white"/>
<path d="M64.8603 90.4001L34.5483 82.1441C33.4923 81.9041 32.4443 82.0881 31.5723 82.568C32.3803 82.2001 33.3163 82.0801 34.2523 82.288L64.5643 90.5441C66.7963 91.0561 68.2123 93.2401 67.7643 95.4881L61.6603 126.016C61.4043 127.312 60.5803 128.328 59.5243 128.896C60.7323 128.36 61.6763 127.272 61.9643 125.864L68.0683 95.336C68.5083 93.104 67.0843 90.9121 64.8603 90.4001Z" fill="url(#paint15_linear_11926_51442)"/>
</g>
<defs>
<linearGradient id="paint0_linear_11926_51442" x1="103.092" y1="57.296" x2="102.193" y2="120.393" gradientUnits="userSpaceOnUse">
<stop stop-color="#FFB255"/>
<stop offset="1" stop-color="#FFCA85"/>
</linearGradient>
<linearGradient id="paint1_linear_11926_51442" x1="102.371" y1="69.6367" x2="112.3" y2="8.13051" gradientUnits="userSpaceOnUse">
<stop stop-color="#989898"/>
<stop offset="1" stop-color="#ECECEC"/>
</linearGradient>
<linearGradient id="paint2_linear_11926_51442" x1="111.365" y1="17.2765" x2="94.473" y2="86.784" gradientUnits="userSpaceOnUse">
<stop stop-color="#FBFBFB"/>
<stop offset="1" stop-color="#E5E5E5"/>
</linearGradient>
<linearGradient id="paint3_linear_11926_51442" x1="93.014" y1="105.212" x2="109.817" y2="64.2917" gradientUnits="userSpaceOnUse">
<stop stop-color="#FFB255"/>
<stop offset="1" stop-color="#FFCA85"/>
</linearGradient>
<linearGradient id="paint4_linear_11926_51442" x1="85.8748" y1="99.9465" x2="101.985" y2="60.7145" gradientUnits="userSpaceOnUse">
<stop stop-color="white"/>
<stop offset="1" stop-color="#FFCA85"/>
</linearGradient>
<linearGradient id="paint5_linear_11926_51442" x1="83.5634" y1="99.6633" x2="105.464" y2="145.947" gradientUnits="userSpaceOnUse">
<stop stop-color="#FFB255"/>
<stop offset="1" stop-color="#FFCA85"/>
</linearGradient>
<linearGradient id="paint6_linear_11926_51442" x1="110.672" y1="144.57" x2="77.6911" y2="96.1974" gradientUnits="userSpaceOnUse">
<stop stop-color="#FFB255"/>
<stop offset="1" stop-color="#FFCA85"/>
</linearGradient>
<linearGradient id="paint7_linear_11926_51442" x1="110.62" y1="144.467" x2="77.6989" y2="96.1831" gradientUnits="userSpaceOnUse">
<stop stop-color="white"/>
<stop offset="1" stop-color="#FFCA85"/>
</linearGradient>
<linearGradient id="paint8_linear_11926_51442" x1="70.4345" y1="53.37" x2="84.2998" y2="82.6715" gradientUnits="userSpaceOnUse">
<stop stop-color="#FFB255"/>
<stop offset="1" stop-color="#FFCA85"/>
</linearGradient>
<linearGradient id="paint9_linear_11926_51442" x1="109.787" y1="33.7098" x2="96.0702" y2="60.808" gradientUnits="userSpaceOnUse">
<stop stop-color="#82FB7C"/>
<stop offset="1" stop-color="#0BA2B3"/>
</linearGradient>
<linearGradient id="paint10_linear_11926_51442" x1="115.392" y1="36.5473" x2="101.676" y2="63.6453" gradientUnits="userSpaceOnUse">
<stop stop-color="#82FB7C"/>
<stop offset="1" stop-color="#0BA2B3"/>
</linearGradient>
<linearGradient id="paint11_linear_11926_51442" x1="128.016" y1="99.0057" x2="171.808" y2="89.066" gradientUnits="userSpaceOnUse">
<stop stop-color="#7F7F7F"/>
<stop offset="1" stop-color="#444444"/>
</linearGradient>
<linearGradient id="paint12_linear_11926_51442" x1="127.801" y1="98.7286" x2="171.592" y2="88.7888" gradientUnits="userSpaceOnUse">
<stop stop-color="#FBFBFB"/>
<stop offset="1" stop-color="#E5E5E5"/>
</linearGradient>
<linearGradient id="paint13_linear_11926_51442" x1="56.0636" y1="117.209" x2="41.3925" y2="91.6629" gradientUnits="userSpaceOnUse">
<stop stop-color="#82FB7C"/>
<stop offset="1" stop-color="#0BA2B3"/>
</linearGradient>
<linearGradient id="paint14_linear_11926_51442" x1="53.0096" y1="85.9694" x2="38.967" y2="123.838" gradientUnits="userSpaceOnUse">
<stop stop-color="#82FB7C"/>
<stop offset="1" stop-color="#0BA2B3"/>
</linearGradient>
<linearGradient id="paint15_linear_11926_51442" x1="53.4897" y1="86.1472" x2="40.2801" y2="121.77" gradientUnits="userSpaceOnUse">
<stop stop-color="white"/>
<stop offset="1" stop-color="#0BA2B3"/>
</linearGradient>
<clipPath id="clip0_11926_51442">
<rect width="197" height="157" fill="white"/>
</clipPath>
</defs>
</svg>
